<svg width="24" height="24" viewBox="0 0 24 24" fill="none" xmlns="http://www.w3.org/2000/svg">
    <g opacity="0.4">
    <path d="M19.5 3.1875H17.0625V2.25C17.0625 2.10082 17.0032 1.95774 16.8977 1.85225C16.7923 1.74676 16.6492 1.6875 16.5 1.6875C16.3508 1.6875 16.2077 1.74676 16.1023 1.85225C15.9968 1.95774 15.9375 2.10082 15.9375 2.25V3.1875H8.0625V2.25C8.0625 2.10082 8.00324 1.95774 7.89775 1.85225C7.79226 1.74676 7.64918 1.6875 7.5 1.6875C7.35082 1.6875 7.20774 1.74676 7.10225 1.85225C6.99676 1.95774 6.9375 2.10082 6.9375 2.25V3.1875H4.5C4.1519 3.1875 3.81806 3.32578 3.57192 3.57192C3.32578 3.81806 3.1875 4.1519 3.1875 4.5V19.5C3.1875 19.8481 3.32578 20.1819 3.57192 20.4281C3.81806 20.6742 4.1519 20.8125 4.5 20.8125H19.5C19.8481 20.8125 20.1819 20.6742 20.4281 20.4281C20.6742 20.1819 20.8125 19.8481 20.8125 19.5V4.5C20.8125 4.1519 20.6742 3.81806 20.4281 3.57192C20.1819 3.32578 19.8481 3.1875 19.5 3.1875ZM4.5 4.3125H6.9375V5.25C6.9375 5.39918 6.99676 5.54226 7.10225 5.64775C7.20774 5.75324 7.35082 5.8125 7.5 5.8125C7.64918 5.8125 7.79226 5.75324 7.89775 5.64775C8.00324 5.54226 8.0625 5.39918 8.0625 5.25V4.3125H15.9375V5.25C15.9375 5.39918 15.9968 5.54226 16.1023 5.64775C16.2077 5.75324 16.3508 5.8125 16.5 5.8125C16.6492 5.8125 16.7923 5.75324 16.8977 5.64775C17.0032 5.54226 17.0625 5.39918 17.0625 5.25V4.3125H19.5C19.5497 4.3125 19.5974 4.33225 19.6326 4.36742C19.6677 4.40258 19.6875 4.45027 19.6875 4.5V7.6875H4.3125V4.5C4.3125 4.45027 4.33225 4.40258 4.36742 4.36742C4.40258 4.33225 4.45027 4.3125 4.5 4.3125ZM19.5 19.6875H4.5C4.45027 19.6875 4.40258 19.6677 4.36742 19.6326C4.33225 19.5974 4.3125 19.5497 4.3125 19.5V8.8125H19.6875V19.5C19.6875 19.5497 19.6677 19.5974 19.6326 19.6326C19.5974 19.6677 19.5497 19.6875 19.5 19.6875Z" fill="white"/>
    </g>
</svg>