<svg width="150" height="48" viewBox="0 0 150 48" fill="none" xmlns="http://www.w3.org/2000/svg">
<path d="M60.3332 16.0786C59.1596 16.0786 58.0992 16.2845 57.152 16.6963C56.2048 17.0875 55.4018 17.6744 54.7429 18.4568C54.084 19.2187 53.5795 20.1555 53.2295 21.2674C52.8795 22.3587 52.7044 23.5942 52.7044 24.9737C52.7044 26.7857 52.9824 28.3609 53.5384 29.6993C54.1149 31.0377 54.9591 32.0672 56.071 32.7879C57.2035 33.5085 58.6139 33.8689 60.3024 33.8689C61.2701 33.8689 62.1864 33.7865 63.0512 33.6218C63.916 33.4571 64.7602 33.2512 65.5839 33.0041V35.4132C64.7602 35.722 63.9057 35.9485 63.0203 36.0927C62.1555 36.2368 61.1157 36.3089 59.9008 36.3089C57.6565 36.3089 55.7827 35.8456 54.2796 34.919C52.7765 33.9924 51.644 32.6746 50.8822 30.9656C50.1409 29.2566 49.7703 27.249 49.7703 24.9428C49.7703 23.275 49.9968 21.7513 50.4498 20.3717C50.9233 18.9922 51.6028 17.7979 52.4882 16.789C53.3942 15.78 54.5061 15.0079 55.8239 14.4725C57.1417 13.9166 58.6551 13.6386 60.3641 13.6386C61.4966 13.6386 62.5879 13.7519 63.638 13.9784C64.6882 14.2048 65.625 14.524 66.4487 14.9358L65.3368 17.2831C64.6573 16.9743 63.8954 16.6963 63.0512 16.4492C62.2276 16.2021 61.3216 16.0786 60.3332 16.0786ZM72.7443 36H70.0264V12.5267H72.7443V36ZM80.7071 19.4452V36H77.9891V19.4452H80.7071ZM79.379 13.2371C79.7908 13.2371 80.1511 13.3812 80.46 13.6695C80.7894 13.9372 80.9542 14.3696 80.9542 14.9667C80.9542 15.5432 80.7894 15.9756 80.46 16.2639C80.1511 16.5522 79.7908 16.6963 79.379 16.6963C78.926 16.6963 78.5451 16.5522 78.2362 16.2639C77.9274 15.9756 77.7729 15.5432 77.7729 14.9667C77.7729 14.3696 77.9274 13.9372 78.2362 13.6695C78.5451 13.3812 78.926 13.2371 79.379 13.2371ZM92.5924 36.3089C91.1304 36.3089 89.8229 36.0103 88.6699 35.4132C87.5374 34.816 86.6417 33.8895 85.9828 32.6334C85.3445 31.3774 85.0253 29.7713 85.0253 27.8152C85.0253 25.7768 85.3651 24.1192 86.0446 22.8426C86.724 21.566 87.6403 20.6291 88.7934 20.032C89.9671 19.4349 91.2952 19.1363 92.7777 19.1363C93.6219 19.1363 94.4352 19.229 95.2177 19.4143C96.0001 19.579 96.6384 19.7849 97.1326 20.032L96.2987 22.2867C95.8045 22.1013 95.228 21.9263 94.5691 21.7616C93.9102 21.5969 93.2924 21.5145 92.7159 21.5145C91.604 21.5145 90.6877 21.7513 89.9671 22.2249C89.2464 22.6985 88.711 23.3986 88.361 24.3251C88.011 25.2517 87.8359 26.4048 87.8359 27.7844C87.8359 29.1021 88.011 30.2243 88.361 31.1509C88.711 32.0775 89.2361 32.7776 89.9362 33.2512C90.6363 33.7247 91.5114 33.9615 92.5615 33.9615C93.4675 33.9615 94.2602 33.8689 94.9397 33.6836C95.6398 33.4982 96.2781 33.2717 96.8546 33.0041V35.4132C96.2987 35.7014 95.681 35.9176 95.0015 36.0618C94.3426 36.2265 93.5395 36.3089 92.5924 36.3089ZM103.479 24.7884C103.479 25.1179 103.458 25.5503 103.417 26.0856C103.396 26.621 103.376 27.0843 103.355 27.4755H103.479C103.602 27.3108 103.788 27.074 104.035 26.7651C104.282 26.4563 104.529 26.1474 104.776 25.8385C105.044 25.5091 105.27 25.2414 105.455 25.0355L110.737 19.4452H113.918L107.216 26.518L114.381 36H111.107L105.363 28.2785L103.479 29.9155V36H100.792V12.5267H103.479V24.7884ZM123.498 13.9475C126.381 13.9475 128.481 14.5137 129.799 15.6462C131.117 16.7787 131.776 18.3744 131.776 20.4335C131.776 21.3395 131.621 22.2146 131.312 23.0588C131.024 23.8824 130.54 24.6237 129.861 25.2826C129.181 25.9415 128.275 26.4666 127.143 26.8578C126.01 27.2284 124.62 27.4137 122.973 27.4137H120.441V36H117.661V13.9475H123.498ZM123.251 16.3257H120.441V25.0355H122.664C124.065 25.0355 125.228 24.8914 126.154 24.6031C127.081 24.2942 127.771 23.8104 128.224 23.1515C128.677 22.4926 128.903 21.6278 128.903 20.5571C128.903 19.1363 128.45 18.0759 127.544 17.3758C126.638 16.6757 125.207 16.3257 123.251 16.3257ZM133.396 19.4452H136.3L139.882 28.8654C140.088 29.4213 140.274 29.9567 140.438 30.4714C140.624 30.9862 140.788 31.4907 140.932 31.9848C141.077 32.4584 141.19 32.9217 141.272 33.3747H141.396C141.519 32.8599 141.715 32.1907 141.983 31.3671C142.25 30.5229 142.528 29.6787 142.816 28.8345L146.183 19.4452H149.117L141.983 38.2856C141.591 39.3151 141.128 40.2108 140.593 40.9726C140.078 41.7551 139.44 42.3522 138.678 42.764C137.936 43.1964 137.03 43.4126 135.96 43.4126C135.466 43.4126 135.033 43.3817 134.663 43.32C134.292 43.2788 133.973 43.2273 133.705 43.1655V41.0035C133.932 41.0447 134.199 41.0859 134.508 41.1271C134.838 41.1682 135.177 41.1888 135.527 41.1888C136.166 41.1888 136.711 41.0653 137.164 40.8182C137.638 40.5917 138.039 40.252 138.369 39.799C138.698 39.3666 138.976 38.8518 139.203 38.2547L140.068 36.0618L133.396 19.4452Z" fill="#F6F7FA"/>
<g clip-path="url(#clip0_630_2188)">
<rect x="3.21722" y="6.21729" width="3.86061" height="34.7454" rx="0.406088" fill="#F6F7FA"/>
<rect x="10.9389" y="6.21729" width="3.86061" height="34.7454" rx="0.406088" fill="#F6F7FA"/>
<rect x="18.6605" y="6.21729" width="3.86061" height="34.7454" rx="0.406088" fill="#F6F7FA"/>
<rect x="26.3803" y="6.21729" width="3.86061" height="34.7454" rx="0.406088" fill="#F6F7FA"/>
<rect x="34.1038" y="19.7302" width="3.86061" height="7.72122" rx="0.406088" fill="#F6F7FA"/>
</g>
<defs>
<clipPath id="clip0_630_2188">
<rect width="41.1812" height="41.1812" fill="white" transform="translate(-6.10352e-05 3)"/>
</clipPath>
</defs>
</svg>
