<svg xmlns="http://www.w3.org/2000/svg" xmlns:xlink="http://www.w3.org/1999/xlink" width="610" zoomAndPan="magnify" viewBox="0 0 457.5 125.999998" height="168" preserveAspectRatio="xMidYMid meet" version="1.2"><defs/><g id="d93a15a052"><path style=" stroke:none;fill-rule:nonzero;fill:#f6f7fa;fill-opacity:1;" d="M 7.824219 24.292969 L 14.402344 24.292969 C 14.644531 24.292969 14.851562 24.375 15.019531 24.546875 C 15.191406 24.71875 15.277344 24.925781 15.277344 25.164062 L 15.277344 98.253906 C 15.277344 98.496094 15.191406 98.703125 15.019531 98.871094 C 14.851562 99.042969 14.644531 99.128906 14.402344 99.128906 L 7.824219 99.128906 C 7.582031 99.128906 7.375 99.042969 7.203125 98.871094 C 7.03125 98.703125 6.949219 98.496094 6.949219 98.253906 L 6.949219 25.164062 C 6.949219 24.925781 7.03125 24.71875 7.203125 24.546875 C 7.375 24.375 7.582031 24.292969 7.824219 24.292969 Z M 7.824219 24.292969 "/><path style=" stroke:none;fill-rule:nonzero;fill:#f6f7fa;fill-opacity:1;" d="M 24.484375 24.292969 L 31.0625 24.292969 C 31.304688 24.292969 31.511719 24.375 31.683594 24.546875 C 31.851562 24.71875 31.9375 24.925781 31.9375 25.164062 L 31.9375 98.253906 C 31.9375 98.496094 31.851562 98.703125 31.683594 98.871094 C 31.511719 99.042969 31.304688 99.128906 31.0625 99.128906 L 24.484375 99.128906 C 24.242188 99.128906 24.035156 99.042969 23.863281 98.871094 C 23.695312 98.703125 23.609375 98.496094 23.609375 98.253906 L 23.609375 25.164062 C 23.609375 24.925781 23.695312 24.71875 23.863281 24.546875 C 24.035156 24.375 24.242188 24.292969 24.484375 24.292969 Z M 24.484375 24.292969 "/><path style=" stroke:none;fill-rule:nonzero;fill:#f6f7fa;fill-opacity:1;" d="M 41.140625 24.292969 L 47.722656 24.292969 C 47.960938 24.292969 48.167969 24.375 48.339844 24.546875 C 48.511719 24.71875 48.597656 24.925781 48.597656 25.164062 L 48.597656 98.253906 C 48.597656 98.496094 48.511719 98.703125 48.339844 98.871094 C 48.167969 99.042969 47.960938 99.128906 47.722656 99.128906 L 41.140625 99.128906 C 40.902344 99.128906 40.695312 99.042969 40.523438 98.871094 C 40.351562 98.703125 40.265625 98.496094 40.265625 98.253906 L 40.265625 25.164062 C 40.265625 24.925781 40.351562 24.71875 40.523438 24.546875 C 40.695312 24.375 40.902344 24.292969 41.140625 24.292969 Z M 41.140625 24.292969 "/><path style=" stroke:none;fill-rule:nonzero;fill:#f6f7fa;fill-opacity:1;" d="M 57.796875 24.292969 L 64.378906 24.292969 C 64.617188 24.292969 64.824219 24.375 64.996094 24.546875 C 65.167969 24.71875 65.253906 24.925781 65.253906 25.164062 L 65.253906 98.253906 C 65.253906 98.496094 65.167969 98.703125 64.996094 98.871094 C 64.824219 99.042969 64.617188 99.128906 64.378906 99.128906 L 57.796875 99.128906 C 57.558594 99.128906 57.351562 99.042969 57.179688 98.871094 C 57.007812 98.703125 56.921875 98.496094 56.921875 98.253906 L 56.921875 25.164062 C 56.921875 24.925781 57.007812 24.71875 57.179688 24.546875 C 57.351562 24.375 57.558594 24.292969 57.796875 24.292969 Z M 57.796875 24.292969 "/><path style=" stroke:none;fill-rule:nonzero;fill:#f6f7fa;fill-opacity:1;" d="M 74.464844 53.398438 L 81.042969 53.398438 C 81.285156 53.398438 81.492188 53.480469 81.660156 53.652344 C 81.832031 53.824219 81.917969 54.03125 81.917969 54.269531 L 81.917969 69.152344 C 81.917969 69.394531 81.832031 69.601562 81.660156 69.769531 C 81.492188 69.941406 81.285156 70.027344 81.042969 70.027344 L 74.464844 70.027344 C 74.222656 70.027344 74.015625 69.941406 73.84375 69.769531 C 73.671875 69.601562 73.585938 69.394531 73.585938 69.152344 L 73.585938 54.269531 C 73.585938 54.03125 73.671875 53.824219 73.84375 53.652344 C 74.015625 53.480469 74.222656 53.398438 74.464844 53.398438 Z M 74.464844 53.398438 "/><g style="fill:#f6f7fa;fill-opacity:1;"><g transform="translate(97.634719, 86.283145)"><path style="stroke:none" d="M 44.390625 -32.96875 L 38.578125 -32.96875 C 38.109375 -35.175781 37.207031 -37.035156 35.875 -38.546875 C 34.550781 -40.066406 32.953125 -41.21875 31.078125 -42 C 29.210938 -42.78125 27.21875 -43.171875 25.09375 -43.171875 C 22.1875 -43.171875 19.554688 -42.4375 17.203125 -40.96875 C 14.859375 -39.5 12.992188 -37.335938 11.609375 -34.484375 C 10.234375 -31.628906 9.546875 -28.125 9.546875 -23.96875 C 9.546875 -19.820312 10.234375 -16.316406 11.609375 -13.453125 C 12.992188 -10.597656 14.859375 -8.4375 17.203125 -6.96875 C 19.554688 -5.507812 22.1875 -4.78125 25.09375 -4.78125 C 27.21875 -4.78125 29.210938 -5.164062 31.078125 -5.9375 C 32.953125 -6.71875 34.550781 -7.863281 35.875 -9.375 C 37.207031 -10.894531 38.109375 -12.765625 38.578125 -14.984375 L 44.390625 -14.984375 C 43.796875 -11.703125 42.582031 -8.894531 40.75 -6.5625 C 38.925781 -4.226562 36.664062 -2.441406 33.96875 -1.203125 C 31.269531 0.0351562 28.3125 0.65625 25.09375 0.65625 C 21.007812 0.65625 17.375 -0.34375 14.1875 -2.34375 C 11 -4.34375 8.492188 -7.179688 6.671875 -10.859375 C 4.847656 -14.546875 3.9375 -18.914062 3.9375 -23.96875 C 3.9375 -29.03125 4.847656 -33.398438 6.671875 -37.078125 C 8.492188 -40.765625 11 -43.601562 14.1875 -45.59375 C 17.375 -47.59375 21.007812 -48.59375 25.09375 -48.59375 C 28.3125 -48.59375 31.269531 -47.972656 33.96875 -46.734375 C 36.664062 -45.492188 38.925781 -43.707031 40.75 -41.375 C 42.582031 -39.039062 43.796875 -36.238281 44.390625 -32.96875 Z M 44.390625 -32.96875 "/></g><g transform="translate(145.582314, 86.283145)"><path style="stroke:none" d="M 10.578125 -47.9375 L 10.578125 0 L 5.0625 0 L 5.0625 -47.9375 Z M 10.578125 -47.9375 "/></g><g transform="translate(161.221472, 86.283145)"><path style="stroke:none" d="M 5.0625 0 L 5.0625 -35.953125 L 10.578125 -35.953125 L 10.578125 0 Z M 7.859375 -41.953125 C 6.785156 -41.953125 5.863281 -42.316406 5.09375 -43.046875 C 4.320312 -43.785156 3.9375 -44.671875 3.9375 -45.703125 C 3.9375 -46.722656 4.320312 -47.597656 5.09375 -48.328125 C 5.863281 -49.066406 6.785156 -49.4375 7.859375 -49.4375 C 8.941406 -49.4375 9.867188 -49.066406 10.640625 -48.328125 C 11.410156 -47.597656 11.796875 -46.722656 11.796875 -45.703125 C 11.796875 -44.671875 11.410156 -43.785156 10.640625 -43.046875 C 9.867188 -42.316406 8.941406 -41.953125 7.859375 -41.953125 Z M 7.859375 -41.953125 "/></g><g transform="translate(176.860629, 86.283145)"><path style="stroke:none" d="M 19.671875 0.75 C 16.296875 0.75 13.390625 -0.046875 10.953125 -1.640625 C 8.515625 -3.234375 6.640625 -5.425781 5.328125 -8.21875 C 4.023438 -11.007812 3.375 -14.203125 3.375 -17.796875 C 3.375 -21.441406 4.046875 -24.664062 5.390625 -27.46875 C 6.742188 -30.269531 8.632812 -32.460938 11.0625 -34.046875 C 13.488281 -35.628906 16.328125 -36.421875 19.578125 -36.421875 C 22.097656 -36.421875 24.375 -35.953125 26.40625 -35.015625 C 28.4375 -34.078125 30.097656 -32.765625 31.390625 -31.078125 C 32.679688 -29.398438 33.484375 -27.4375 33.796875 -25.1875 L 28.28125 -25.1875 C 27.851562 -26.820312 26.914062 -28.273438 25.46875 -29.546875 C 24.03125 -30.828125 22.097656 -31.46875 19.671875 -31.46875 C 16.429688 -31.46875 13.820312 -30.238281 11.84375 -27.78125 C 9.875 -25.320312 8.890625 -22.054688 8.890625 -17.984375 C 8.890625 -13.816406 9.863281 -10.476562 11.8125 -7.96875 C 13.769531 -5.46875 16.390625 -4.21875 19.671875 -4.21875 C 21.816406 -4.21875 23.65625 -4.769531 25.1875 -5.875 C 26.726562 -6.976562 27.757812 -8.515625 28.28125 -10.484375 L 33.796875 -10.484375 C 33.484375 -8.359375 32.710938 -6.445312 31.484375 -4.75 C 30.265625 -3.0625 28.648438 -1.722656 26.640625 -0.734375 C 24.640625 0.253906 22.316406 0.75 19.671875 0.75 Z M 19.671875 0.75 "/></g><g transform="translate(213.664156, 86.283145)"><path style="stroke:none" d="M 5.0625 0 L 5.0625 -47.9375 L 10.578125 -47.9375 L 10.578125 -19.9375 L 11.234375 -19.9375 L 26.96875 -35.953125 L 33.796875 -35.953125 L 18.609375 -20.59375 L 34.921875 0 L 27.90625 0 L 14.4375 -17.046875 L 10.578125 -13.453125 L 10.578125 0 Z M 5.0625 0 "/></g><g transform="translate(249.531207, 86.283145)"><path style="stroke:none" d="M 38.578125 -32.96875 C 37.566406 -36.113281 35.898438 -38.597656 33.578125 -40.421875 C 31.265625 -42.253906 28.375 -43.171875 24.90625 -43.171875 C 22.0625 -43.171875 19.476562 -42.4375 17.15625 -40.96875 C 14.832031 -39.5 12.984375 -37.335938 11.609375 -34.484375 C 10.234375 -31.628906 9.546875 -28.125 9.546875 -23.96875 C 9.546875 -19.820312 10.238281 -16.316406 11.625 -13.453125 C 13.019531 -10.597656 14.898438 -8.4375 17.265625 -6.96875 C 19.640625 -5.507812 22.3125 -4.78125 25.28125 -4.78125 C 27.976562 -4.78125 30.367188 -5.351562 32.453125 -6.5 C 34.535156 -7.644531 36.171875 -9.265625 37.359375 -11.359375 C 38.546875 -13.460938 39.171875 -15.953125 39.234375 -18.828125 L 26.59375 -18.828125 L 26.59375 -23.96875 L 44.859375 -23.96875 L 44.859375 -18.828125 C 44.859375 -14.878906 44.015625 -11.441406 42.328125 -8.515625 C 40.648438 -5.597656 38.34375 -3.335938 35.40625 -1.734375 C 32.46875 -0.140625 29.09375 0.65625 25.28125 0.65625 C 21.039062 0.65625 17.316406 -0.34375 14.109375 -2.34375 C 10.898438 -4.34375 8.398438 -7.179688 6.609375 -10.859375 C 4.828125 -14.546875 3.9375 -18.914062 3.9375 -23.96875 C 3.9375 -29.03125 4.828125 -33.398438 6.609375 -37.078125 C 8.398438 -40.765625 10.875 -43.601562 14.03125 -45.59375 C 17.195312 -47.59375 20.820312 -48.59375 24.90625 -48.59375 C 28.28125 -48.59375 31.335938 -47.929688 34.078125 -46.609375 C 36.828125 -45.296875 39.113281 -43.460938 40.9375 -41.109375 C 42.769531 -38.765625 43.984375 -36.050781 44.578125 -32.96875 Z M 38.578125 -32.96875 "/></g><g transform="translate(298.508927, 86.283145)"><path style="stroke:none" d="M 20.125 0.75 C 16.664062 0.75 13.679688 -0.015625 11.171875 -1.546875 C 8.671875 -3.085938 6.742188 -5.242188 5.390625 -8.015625 C 4.046875 -10.785156 3.375 -14.015625 3.375 -17.703125 C 3.375 -21.378906 4.046875 -24.625 5.390625 -27.4375 C 6.742188 -30.257812 8.632812 -32.460938 11.0625 -34.046875 C 13.488281 -35.628906 16.328125 -36.421875 19.578125 -36.421875 C 21.441406 -36.421875 23.285156 -36.109375 25.109375 -35.484375 C 26.941406 -34.859375 28.609375 -33.847656 30.109375 -32.453125 C 31.609375 -31.054688 32.800781 -29.210938 33.6875 -26.921875 C 34.570312 -24.628906 35.015625 -21.804688 35.015625 -18.453125 L 35.015625 -16.109375 L 8.921875 -16.109375 C 9.046875 -12.265625 10.132812 -9.320312 12.1875 -7.28125 C 14.238281 -5.238281 16.882812 -4.21875 20.125 -4.21875 C 22.300781 -4.21875 24.164062 -4.679688 25.71875 -5.609375 C 27.28125 -6.546875 28.414062 -7.953125 29.125 -9.828125 L 34.453125 -8.328125 C 33.609375 -5.617188 31.921875 -3.425781 29.390625 -1.75 C 26.867188 -0.0820312 23.78125 0.75 20.125 0.75 Z M 8.921875 -20.875 L 29.40625 -20.875 C 29.40625 -23.925781 28.515625 -26.453125 26.734375 -28.453125 C 24.953125 -30.460938 22.566406 -31.46875 19.578125 -31.46875 C 17.460938 -31.46875 15.632812 -30.972656 14.09375 -29.984375 C 12.550781 -29.003906 11.332031 -27.707031 10.4375 -26.09375 C 9.550781 -24.476562 9.046875 -22.738281 8.921875 -20.875 Z M 8.921875 -20.875 "/></g><g transform="translate(336.904462, 86.283145)"><path style="stroke:none" d="M 5.0625 0 L 5.0625 -35.953125 L 10.390625 -35.953125 L 10.390625 -30.34375 L 10.859375 -30.34375 C 11.609375 -32.257812 12.816406 -33.75 14.484375 -34.8125 C 16.160156 -35.882812 18.164062 -36.421875 20.5 -36.421875 C 22.875 -36.421875 24.851562 -35.882812 26.4375 -34.8125 C 28.019531 -33.75 29.257812 -32.257812 30.15625 -30.34375 L 30.53125 -30.34375 C 31.445312 -32.195312 32.828125 -33.671875 34.671875 -34.765625 C 36.515625 -35.867188 38.722656 -36.421875 41.296875 -36.421875 C 44.515625 -36.421875 47.144531 -35.414062 49.1875 -33.40625 C 51.226562 -31.40625 52.25 -28.289062 52.25 -24.0625 L 52.25 0 L 46.71875 0 L 46.71875 -24.0625 C 46.71875 -26.71875 45.992188 -28.613281 44.546875 -29.75 C 43.097656 -30.894531 41.390625 -31.46875 39.421875 -31.46875 C 36.890625 -31.46875 34.929688 -30.703125 33.546875 -29.171875 C 32.160156 -27.648438 31.46875 -25.726562 31.46875 -23.40625 L 31.46875 0 L 25.84375 0 L 25.84375 -24.625 C 25.84375 -26.664062 25.175781 -28.316406 23.84375 -29.578125 C 22.519531 -30.835938 20.816406 -31.46875 18.734375 -31.46875 C 17.296875 -31.46875 15.957031 -31.082031 14.71875 -30.3125 C 13.476562 -29.550781 12.476562 -28.492188 11.71875 -27.140625 C 10.957031 -25.796875 10.578125 -24.238281 10.578125 -22.46875 L 10.578125 0 Z M 5.0625 0 "/></g><g transform="translate(394.216823, 86.283145)"><path style="stroke:none" d="M 30.53125 -27.90625 L 25.5625 -26.5 C 25.082031 -27.75 24.269531 -28.921875 23.125 -30.015625 C 21.988281 -31.109375 20.210938 -31.65625 17.796875 -31.65625 C 15.585938 -31.65625 13.753906 -31.148438 12.296875 -30.140625 C 10.835938 -29.128906 10.109375 -27.851562 10.109375 -26.3125 C 10.109375 -24.9375 10.609375 -23.847656 11.609375 -23.046875 C 12.609375 -22.253906 14.171875 -21.59375 16.296875 -21.0625 L 21.625 -19.765625 C 28 -18.203125 31.1875 -14.953125 31.1875 -10.015625 C 31.1875 -7.953125 30.59375 -6.109375 29.40625 -4.484375 C 28.226562 -2.867188 26.585938 -1.59375 24.484375 -0.65625 C 22.378906 0.28125 19.929688 0.75 17.140625 0.75 C 13.472656 0.75 10.4375 -0.046875 8.03125 -1.640625 C 5.625 -3.234375 4.101562 -5.554688 3.46875 -8.609375 L 8.703125 -9.921875 C 9.691406 -6.054688 12.472656 -4.125 17.046875 -4.125 C 19.617188 -4.125 21.664062 -4.671875 23.1875 -5.765625 C 24.707031 -6.867188 25.46875 -8.191406 25.46875 -9.734375 C 25.46875 -12.273438 23.6875 -13.960938 20.125 -14.796875 L 14.140625 -16.203125 C 10.847656 -16.984375 8.429688 -18.195312 6.890625 -19.84375 C 5.359375 -21.488281 4.59375 -23.550781 4.59375 -26.03125 C 4.59375 -28.0625 5.164062 -29.851562 6.3125 -31.40625 C 7.457031 -32.96875 9.023438 -34.191406 11.015625 -35.078125 C 13.003906 -35.972656 15.265625 -36.421875 17.796875 -36.421875 C 21.347656 -36.421875 24.140625 -35.640625 26.171875 -34.078125 C 28.210938 -32.523438 29.664062 -30.46875 30.53125 -27.90625 Z M 30.53125 -27.90625 "/></g></g></g></svg>