<svg width="232" height="48" viewBox="0 0 232 48" fill="none" xmlns="http://www.w3.org/2000/svg">
<g clip-path="url(#clip0_615_282)">
<rect x="3.69165" y="4.06519" width="4.42983" height="39.8684" rx="0.465963" fill="#F9F9F9"/>
<rect x="12.5519" y="4.06519" width="4.42983" height="39.8684" rx="0.465963" fill="#F9F9F9"/>
<rect x="21.412" y="4.06519" width="4.42983" height="39.8684" rx="0.465963" fill="#F9F9F9"/>
<rect x="30.2699" y="4.06519" width="4.42983" height="39.8684" rx="0.465963" fill="#F9F9F9"/>
<rect x="39.1323" y="19.5703" width="4.42983" height="8.85966" rx="0.465963" fill="#F9F9F9"/>
</g>
<path d="M69.429 15.6375C68.1768 15.6375 67.0545 15.8619 66.0622 16.3108C65.0699 16.7361 64.2193 17.374 63.5105 18.2246C62.8254 19.0751 62.2938 20.1029 61.9157 21.3078C61.5613 22.5128 61.3841 23.8713 61.3841 25.3834C61.3841 27.3681 61.6795 29.0928 62.2701 30.5576C62.8608 31.9989 63.7468 33.1093 64.9281 33.889C66.1094 34.6687 67.5979 35.0585 69.3935 35.0585C70.4804 35.0585 71.5199 34.964 72.5122 34.775C73.5282 34.5623 74.5559 34.2906 75.5955 33.9599V37.2558C74.6032 37.6338 73.5873 37.9055 72.5477 38.0709C71.5081 38.2599 70.3032 38.3544 68.9328 38.3544C66.3575 38.3544 64.2075 37.8228 62.4828 36.7596C60.7817 35.6964 59.5058 34.1843 58.6553 32.2233C57.8047 30.2623 57.3794 27.9705 57.3794 25.348C57.3794 23.4342 57.6393 21.6859 58.1591 20.1029C58.7025 18.4963 59.4822 17.1141 60.4981 15.9564C61.5141 14.7987 62.7663 13.9127 64.2548 13.2984C65.7669 12.6605 67.5034 12.3416 69.4644 12.3416C70.7403 12.3416 71.9925 12.4833 73.221 12.7669C74.4496 13.0267 75.5601 13.4048 76.5524 13.9009L75.1348 17.0905C74.3079 16.7125 73.4101 16.3817 72.4414 16.0982C71.4963 15.791 70.4922 15.6375 69.429 15.6375ZM84.3779 38H80.6213V11.0657H84.3779V38ZM94.0339 18.8979V38H90.2773V18.8979H94.0339ZM92.191 11.6328C92.7581 11.6328 93.2542 11.7982 93.6795 12.1289C94.1048 12.4597 94.3174 13.0149 94.3174 13.7946C94.3174 14.5507 94.1048 15.1059 93.6795 15.4603C93.2542 15.791 92.7581 15.9564 92.191 15.9564C91.5767 15.9564 91.057 15.791 90.6317 15.4603C90.23 15.1059 90.0292 14.5507 90.0292 13.7946C90.0292 13.0149 90.23 12.4597 90.6317 12.1289C91.057 11.7982 91.5767 11.6328 92.191 11.6328ZM107.624 38.3544C105.875 38.3544 104.34 38.0118 103.017 37.3266C101.693 36.6415 100.666 35.5783 99.9332 34.1371C99.2008 32.6722 98.8346 30.8175 98.8346 28.573C98.8346 26.2104 99.2244 24.2966 100.004 22.8318C100.807 21.3669 101.882 20.2919 103.229 19.6067C104.599 18.8979 106.159 18.5435 107.907 18.5435C108.97 18.5435 109.963 18.6617 110.884 18.8979C111.829 19.1106 112.609 19.3587 113.223 19.6422L112.089 22.69C111.428 22.4301 110.719 22.2057 109.963 22.0166C109.23 21.8276 108.533 21.7331 107.872 21.7331C106.69 21.7331 105.71 21.993 104.93 22.5128C104.174 23.009 103.607 23.765 103.229 24.7809C102.875 25.7733 102.698 27.0255 102.698 28.5376C102.698 29.9788 102.887 31.1956 103.265 32.1879C103.643 33.1802 104.198 33.9362 104.93 34.456C105.686 34.9522 106.62 35.2003 107.73 35.2003C108.793 35.2003 109.726 35.0821 110.53 34.8459C111.333 34.6096 112.089 34.3024 112.798 33.9244V37.1849C112.113 37.5865 111.368 37.8819 110.565 38.0709C109.762 38.2599 108.781 38.3544 107.624 38.3544ZM121.028 24.5329C121.028 25.029 121.005 25.5961 120.957 26.234C120.934 26.8719 120.898 27.4626 120.851 28.006H120.957C121.146 27.7697 121.371 27.4862 121.631 27.1554C121.914 26.801 122.198 26.4466 122.481 26.0922C122.765 25.7378 123.025 25.4307 123.261 25.1708L129.109 18.8979H133.468L125.777 27.0845L133.964 38H129.534L123.226 29.459L121.028 31.3019V38H117.307V11.0657H121.028V24.5329ZM148.09 24.3911H157.233V37.0077C155.887 37.4566 154.504 37.7874 153.087 38C151.693 38.2363 150.098 38.3544 148.303 38.3544C145.727 38.3544 143.542 37.8346 141.746 36.795C139.974 35.7555 138.616 34.267 137.671 32.3296C136.749 30.3923 136.288 28.065 136.288 25.348C136.288 22.7018 136.808 20.41 137.848 18.4727C138.887 16.5353 140.376 15.035 142.313 13.9718C144.274 12.885 146.649 12.3416 149.437 12.3416C150.831 12.3416 152.165 12.4833 153.441 12.7669C154.717 13.0267 155.898 13.393 156.985 13.8655L155.603 17.0551C154.729 16.6534 153.748 16.3226 152.662 16.0628C151.598 15.7792 150.476 15.6375 149.295 15.6375C147.428 15.6375 145.81 16.0391 144.44 16.8424C143.093 17.6221 142.053 18.7444 141.321 20.2092C140.612 21.6504 140.258 23.3752 140.258 25.3834C140.258 27.2735 140.553 28.951 141.144 30.4159C141.734 31.8807 142.668 33.0266 143.943 33.8535C145.219 34.6805 146.885 35.0939 148.94 35.0939C149.626 35.0939 150.228 35.0703 150.748 35.0231C151.268 34.9522 151.74 34.8813 152.165 34.8104C152.614 34.7159 153.04 34.6332 153.441 34.5623V27.687H148.09V24.3911ZM170.366 18.5435C172.043 18.5435 173.485 18.8979 174.69 19.6067C175.895 20.2919 176.816 21.2842 177.454 22.5837C178.116 23.8831 178.446 25.4189 178.446 27.1909V29.2464H165.617C165.664 31.2074 166.172 32.7077 167.141 33.7472C168.133 34.7868 169.515 35.3066 171.287 35.3066C172.516 35.3066 173.603 35.2003 174.548 34.9876C175.517 34.7514 176.509 34.4088 177.525 33.9599V37.0786C176.58 37.5038 175.611 37.8228 174.619 38.0354C173.65 38.2481 172.492 38.3544 171.146 38.3544C169.303 38.3544 167.673 37.9882 166.255 37.2558C164.837 36.5233 163.727 35.4365 162.924 33.9953C162.144 32.5305 161.754 30.7348 161.754 28.6084C161.754 26.4584 162.109 24.6392 162.817 23.1507C163.55 21.6622 164.554 20.5282 165.83 19.7485C167.129 18.9452 168.641 18.5435 170.366 18.5435ZM170.366 21.4496C169.019 21.4496 167.932 21.8867 167.106 22.7609C166.302 23.6351 165.83 24.8755 165.688 26.4821H174.69C174.69 25.4897 174.536 24.6156 174.229 23.8595C173.922 23.1035 173.449 22.5128 172.811 22.0875C172.173 21.6622 171.358 21.4496 170.366 21.4496ZM204.539 18.5435C206.689 18.5435 208.308 19.0988 209.395 20.2092C210.481 21.3197 211.025 23.1035 211.025 25.5606V38H207.268V26.0568C207.268 24.5919 206.973 23.4933 206.382 22.7609C205.815 22.0048 204.917 21.6268 203.689 21.6268C201.988 21.6268 200.771 22.1584 200.039 23.2216C199.306 24.2612 198.94 25.7733 198.94 27.7579V38H195.219V26.0568C195.219 25.0881 195.077 24.273 194.793 23.6114C194.534 22.9499 194.144 22.4537 193.624 22.123C193.104 21.7922 192.431 21.6268 191.604 21.6268C190.423 21.6268 189.489 21.8867 188.804 22.4065C188.119 22.9263 187.623 23.6941 187.316 24.7101C187.032 25.7024 186.89 26.9192 186.89 28.3604V38H183.134V18.8979H186.111L186.642 21.4496H186.855C187.257 20.7881 187.741 20.2447 188.308 19.8194C188.899 19.3941 189.548 19.0751 190.257 18.8625C190.966 18.6499 191.698 18.5435 192.454 18.5435C193.896 18.5435 195.112 18.8034 196.105 19.3232C197.097 19.8194 197.818 20.5872 198.267 21.6268H198.55C199.164 20.5636 200.015 19.7839 201.102 19.2878C202.189 18.7916 203.334 18.5435 204.539 18.5435ZM229.461 32.6131C229.461 33.8654 229.154 34.9167 228.54 35.7673C227.926 36.6178 227.04 37.2676 225.882 37.7165C224.724 38.1418 223.33 38.3544 221.7 38.3544C220.353 38.3544 219.196 38.2481 218.227 38.0354C217.282 37.8464 216.408 37.5629 215.604 37.1849V33.889C216.455 34.2906 217.435 34.6568 218.546 34.9876C219.656 35.2948 220.743 35.4483 221.806 35.4483C223.224 35.4483 224.24 35.2239 224.854 34.775C225.492 34.3261 225.811 33.7236 225.811 32.9675C225.811 32.5423 225.693 32.1642 225.457 31.8335C225.22 31.4791 224.771 31.1247 224.11 30.7703C223.472 30.3923 222.527 29.967 221.275 29.4944C220.07 28.9983 219.042 28.5139 218.191 28.0414C217.341 27.5453 216.691 26.9664 216.242 26.3049C215.793 25.6197 215.569 24.7455 215.569 23.6823C215.569 22.0285 216.23 20.7644 217.554 19.8903C218.9 18.9924 220.672 18.5435 222.87 18.5435C224.027 18.5435 225.114 18.6617 226.13 18.8979C227.17 19.1106 228.174 19.4413 229.142 19.8903L227.902 22.7609C227.359 22.501 226.792 22.2883 226.201 22.123C225.634 21.9339 225.055 21.7804 224.464 21.6622C223.897 21.5441 223.307 21.485 222.692 21.485C221.558 21.485 220.696 21.6622 220.105 22.0166C219.515 22.371 219.219 22.8672 219.219 23.5051C219.219 23.954 219.349 24.3439 219.609 24.6746C219.893 25.0054 220.377 25.3362 221.062 25.6669C221.747 25.9977 222.681 26.3994 223.862 26.8719C225.043 27.3208 226.047 27.7815 226.874 28.2541C227.725 28.7266 228.363 29.3054 228.788 29.9906C229.237 30.6758 229.461 31.55 229.461 32.6131Z" fill="white"/>
<defs>
<clipPath id="clip0_615_282">
<rect width="47.2531" height="47.2531" fill="white" transform="translate(0 0.373535)"/>
</clipPath>
</defs>
</svg>
