<svg width="24" height="24" viewBox="0 0 24 24" fill="none" xmlns="http://www.w3.org/2000/svg">
<g opacity="0.4">
<path d="M12 2.4375C10.1087 2.4375 8.25991 2.99833 6.68736 4.04907C5.11482 5.09981 3.88917 6.59327 3.16541 8.34059C2.44164 10.0879 2.25227 12.0106 2.62125 13.8656C2.99022 15.7205 3.90096 17.4244 5.2383 18.7617C6.57564 20.099 8.27951 21.0098 10.1345 21.3788C11.9894 21.7477 13.9121 21.5584 15.6594 20.8346C17.4067 20.1108 18.9002 18.8852 19.9509 17.3126C21.0017 15.7401 21.5625 13.8913 21.5625 12C21.5595 9.46478 20.5511 7.03425 18.7584 5.24158C16.9658 3.44891 14.5352 2.44048 12 2.4375ZM19.6472 8.4375H15.8803C15.4704 6.73724 14.7228 5.13677 13.6819 3.73125C14.9741 3.9968 16.1864 4.5606 17.2221 5.3777C18.2578 6.19479 19.0882 7.24258 19.6472 8.4375ZM20.4375 12C20.4381 12.8257 20.3172 13.647 20.0784 14.4375H16.1119C16.3794 12.8235 16.3794 11.1765 16.1119 9.5625H20.0784C20.3172 10.353 20.4381 11.1743 20.4375 12ZM12 20.4375C11.9766 20.4376 11.9535 20.4328 11.9321 20.4232C11.9108 20.4137 11.8918 20.3997 11.8763 20.3822C10.6688 19.0819 9.78188 17.4122 9.28125 15.5625H14.7188C14.2181 17.4122 13.3313 19.0819 12.1238 20.3822C12.1083 20.3997 12.0892 20.4137 12.0679 20.4232C12.0465 20.4328 12.0234 20.4376 12 20.4375ZM9.02907 14.4375C8.74033 12.8253 8.74033 11.1747 9.02907 9.5625H14.9709C15.2597 11.1747 15.2597 12.8253 14.9709 14.4375H9.02907ZM3.5625 12C3.56187 11.1743 3.68286 10.353 3.92157 9.5625H7.88813C7.62061 11.1765 7.62061 12.8235 7.88813 14.4375H3.92157C3.68286 13.647 3.56187 12.8257 3.5625 12ZM12 3.5625C12.0234 3.56237 12.0465 3.56724 12.0679 3.57678C12.0892 3.58632 12.1083 3.60031 12.1238 3.61781C13.3313 4.91812 14.2181 6.58781 14.7188 8.4375H9.28125C9.78188 6.58781 10.6688 4.91812 11.8763 3.61781C11.8918 3.60031 11.9108 3.58632 11.9321 3.57678C11.9535 3.56724 11.9766 3.56237 12 3.5625ZM10.3181 3.73125C9.27724 5.13677 8.52961 6.73724 8.11969 8.4375H4.35282C4.9118 7.24258 5.74225 6.19479 6.77795 5.3777C7.81364 4.5606 9.02593 3.9968 10.3181 3.73125ZM4.35282 15.5625H8.11969C8.52961 17.2628 9.27724 18.8632 10.3181 20.2687C9.02593 20.0032 7.81364 19.4394 6.77795 18.6223C5.74225 17.8052 4.9118 16.7574 4.35282 15.5625ZM13.6819 20.2687C14.7228 18.8632 15.4704 17.2628 15.8803 15.5625H19.6472C19.0882 16.7574 18.2578 17.8052 17.2221 18.6223C16.1864 19.4394 14.9741 20.0032 13.6819 20.2687Z" fill="white"/>
</g>
</svg>
