<svg width="40" height="40" viewBox="0 0 40 40" fill="none" xmlns="http://www.w3.org/2000/svg">
<g clip-path="url(#clip0_1_23715)">
<rect x="8" y="8" width="2" height="2" fill="#F3F3F3" fill-opacity="0.015"/>
<rect x="8" y="8" width="2" height="2" fill="#F3F3F3" fill-opacity="0.015"/>
<rect x="8" y="8" width="2" height="2" fill="#F3F3F3" fill-opacity="0.015"/>
<rect x="18" y="8" width="2" height="2" fill="#F3F3F3" fill-opacity="0.015"/>
<rect x="18" y="8" width="2" height="2" fill="#F3F3F3" fill-opacity="0.015"/>
<rect x="18" y="8" width="2" height="2" fill="#F3F3F3" fill-opacity="0.015"/>
<rect x="28" y="8" width="2" height="2" fill="#F3F3F3" fill-opacity="0.015"/>
<rect x="28" y="8" width="2" height="2" fill="#F3F3F3" fill-opacity="0.015"/>
<rect x="28" y="8" width="2" height="2" fill="#F3F3F3" fill-opacity="0.015"/>
<rect x="38" y="8" width="2" height="2" fill="#F3F3F3" fill-opacity="0.015"/>
<rect x="38" y="8" width="2" height="2" fill="#F3F3F3" fill-opacity="0.015"/>
<rect x="38" y="8" width="2" height="2" fill="#F3F3F3" fill-opacity="0.015"/>
</g>
<g clip-path="url(#clip1_1_23715)">
<rect x="8" y="18" width="2" height="2" fill="#F3F3F3" fill-opacity="0.015"/>
<rect x="8" y="18" width="2" height="2" fill="#F3F3F3" fill-opacity="0.015"/>
<rect x="8" y="18" width="2" height="2" fill="#F3F3F3" fill-opacity="0.015"/>
<rect x="18" y="18" width="2" height="2" fill="#F3F3F3" fill-opacity="0.015"/>
<rect x="18" y="18" width="2" height="2" fill="#F3F3F3" fill-opacity="0.015"/>
<rect x="18" y="18" width="2" height="2" fill="#F3F3F3" fill-opacity="0.015"/>
<rect x="28" y="18" width="2" height="2" fill="#F3F3F3" fill-opacity="0.015"/>
<rect x="28" y="18" width="2" height="2" fill="#F3F3F3" fill-opacity="0.015"/>
<rect x="28" y="18" width="2" height="2" fill="#F3F3F3" fill-opacity="0.015"/>
<rect x="38" y="18" width="2" height="2" fill="#F3F3F3" fill-opacity="0.015"/>
<rect x="38" y="18" width="2" height="2" fill="#F3F3F3" fill-opacity="0.015"/>
<rect x="38" y="18" width="2" height="2" fill="#F3F3F3" fill-opacity="0.015"/>
</g>
<g clip-path="url(#clip2_1_23715)">
<rect x="8" y="28" width="2" height="2" fill="#F3F3F3" fill-opacity="0.015"/>
<rect x="8" y="28" width="2" height="2" fill="#F3F3F3" fill-opacity="0.015"/>
<rect x="8" y="28" width="2" height="2" fill="#F3F3F3" fill-opacity="0.015"/>
<rect x="18" y="28" width="2" height="2" fill="#F3F3F3" fill-opacity="0.015"/>
<rect x="18" y="28" width="2" height="2" fill="#F3F3F3" fill-opacity="0.015"/>
<rect x="18" y="28" width="2" height="2" fill="#F3F3F3" fill-opacity="0.015"/>
<rect x="28" y="28" width="2" height="2" fill="#F3F3F3" fill-opacity="0.015"/>
<rect x="28" y="28" width="2" height="2" fill="#F3F3F3" fill-opacity="0.015"/>
<rect x="28" y="28" width="2" height="2" fill="#F3F3F3" fill-opacity="0.015"/>
<rect x="38" y="28" width="2" height="2" fill="#F3F3F3" fill-opacity="0.015"/>
<rect x="38" y="28" width="2" height="2" fill="#F3F3F3" fill-opacity="0.015"/>
<rect x="38" y="28" width="2" height="2" fill="#F3F3F3" fill-opacity="0.015"/>
</g>
<g clip-path="url(#clip3_1_23715)">
<rect x="8" y="38" width="2" height="2" fill="#F3F3F3" fill-opacity="0.015"/>
<rect x="8" y="38" width="2" height="2" fill="#F3F3F3" fill-opacity="0.015"/>
<rect x="8" y="38" width="2" height="2" fill="#F3F3F3" fill-opacity="0.015"/>
<rect x="18" y="38" width="2" height="2" fill="#F3F3F3" fill-opacity="0.015"/>
<rect x="18" y="38" width="2" height="2" fill="#F3F3F3" fill-opacity="0.015"/>
<rect x="18" y="38" width="2" height="2" fill="#F3F3F3" fill-opacity="0.015"/>
<rect x="28" y="38" width="2" height="2" fill="#F3F3F3" fill-opacity="0.015"/>
<rect x="28" y="38" width="2" height="2" fill="#F3F3F3" fill-opacity="0.015"/>
<rect x="28" y="38" width="2" height="2" fill="#F3F3F3" fill-opacity="0.015"/>
<rect x="38" y="38" width="2" height="2" fill="#F3F3F3" fill-opacity="0.015"/>
<rect x="38" y="38" width="2" height="2" fill="#F3F3F3" fill-opacity="0.015"/>
<rect x="38" y="38" width="2" height="2" fill="#F3F3F3" fill-opacity="0.015"/>
</g>
<defs>
<clipPath id="clip0_1_23715">
<rect width="32" height="2" fill="white" transform="translate(8 8)"/>
</clipPath>
<clipPath id="clip1_1_23715">
<rect width="32" height="2" fill="white" transform="translate(8 18)"/>
</clipPath>
<clipPath id="clip2_1_23715">
<rect width="32" height="2" fill="white" transform="translate(8 28)"/>
</clipPath>
<clipPath id="clip3_1_23715">
<rect width="32" height="2" fill="white" transform="translate(8 38)"/>
</clipPath>
</defs>
</svg>