<svg width="24" height="24" viewBox="0 0 24 24" fill="none" xmlns="http://www.w3.org/2000/svg">
<g opacity="0.4">
<path d="M21.4472 4.71941C21.3466 4.48584 21.1794 4.28711 20.9665 4.14805C20.7536 4.00899 20.5044 3.93576 20.2501 3.93753H3.75005C3.49597 3.93802 3.24749 4.01224 3.03476 4.1512C2.82204 4.29016 2.65423 4.48788 2.55169 4.72035C2.44915 4.95283 2.41629 5.21007 2.45711 5.46086C2.49792 5.71164 2.61065 5.94519 2.78162 6.13316L2.78724 6.13972L9.13693 12.9188C9.16952 12.9536 9.18763 12.9995 9.18755 13.0472V20.25C9.18765 20.4876 9.25222 20.7207 9.37438 20.9244C9.49654 21.1281 9.6717 21.2949 9.88119 21.4069C10.0907 21.5189 10.3266 21.572 10.5639 21.5604C10.8012 21.5489 11.0309 21.4731 11.2285 21.3413L14.2285 19.3416C14.4082 19.2217 14.5556 19.0593 14.6575 18.8687C14.7593 18.6782 14.8126 18.4655 14.8126 18.2494V13.0472C14.8125 12.9995 14.8306 12.9536 14.8632 12.9188L21.2185 6.13316C21.3914 5.94609 21.5053 5.71221 21.546 5.46076C21.5866 5.20931 21.5523 4.95145 21.4472 4.71941ZM20.3916 5.37003L14.0419 12.15C13.8136 12.3929 13.6868 12.7139 13.6876 13.0472V18.2494C13.6877 18.2804 13.6801 18.3109 13.6655 18.3382C13.651 18.3655 13.6299 18.3888 13.6041 18.406L10.6041 20.4057C10.5759 20.4245 10.5431 20.4353 10.5092 20.437C10.4754 20.4386 10.4417 20.4311 10.4118 20.4151C10.3818 20.3991 10.3568 20.3753 10.3393 20.3463C10.3219 20.3172 10.3126 20.2839 10.3126 20.25V13.0472C10.3128 12.7137 10.1861 12.3926 9.95818 12.1491L3.61224 5.37378C3.58861 5.34689 3.57317 5.3138 3.56774 5.27841C3.56232 5.24303 3.56714 5.20683 3.58163 5.1741C3.59613 5.14136 3.61969 5.11346 3.64953 5.09369C3.67938 5.07392 3.71426 5.06311 3.75005 5.06253H20.2501C20.2866 5.06124 20.3228 5.07125 20.3535 5.09122C20.3842 5.11118 20.408 5.14012 20.4216 5.17409C20.4371 5.20594 20.4425 5.24174 20.4372 5.27674C20.4318 5.31174 20.4159 5.34428 20.3916 5.37003Z" fill="white"/>
</g>
</svg>
