<svg width="49" height="48" viewBox="0 0 49 48" fill="none" xmlns="http://www.w3.org/2000/svg">
<rect x="0.200195" width="48" height="48" rx="8" fill="#1F1F1C"/>
<g clip-path="url(#clip0_1453_1631)">
<path d="M18.2002 20.25V22.5C18.2002 22.8978 18.3582 23.2794 18.6395 23.5607C18.9208 23.842 19.3024 24 19.7002 24H28.7002C29.098 24 29.4796 23.842 29.7609 23.5607C30.0422 23.2794 30.2002 22.8978 30.2002 22.5V20.25" stroke="#FAFF69" stroke-width="1.5" stroke-linecap="round" stroke-linejoin="round"/>
<path d="M24.2002 24V27.75" stroke="#FAFF69" stroke-width="1.5" stroke-linecap="round" stroke-linejoin="round"/>
<path d="M18.2002 20.25C19.4428 20.25 20.4502 19.2426 20.4502 18C20.4502 16.7574 19.4428 15.75 18.2002 15.75C16.9576 15.75 15.9502 16.7574 15.9502 18C15.9502 19.2426 16.9576 20.25 18.2002 20.25Z" stroke="#FAFF69" stroke-width="1.5" stroke-linecap="round" stroke-linejoin="round"/>
<path d="M24.2002 32.25C25.4428 32.25 26.4502 31.2426 26.4502 30C26.4502 28.7574 25.4428 27.75 24.2002 27.75C22.9576 27.75 21.9502 28.7574 21.9502 30C21.9502 31.2426 22.9576 32.25 24.2002 32.25Z" stroke="#FAFF69" stroke-width="1.5" stroke-linecap="round" stroke-linejoin="round"/>
<path d="M30.2002 20.25C31.4428 20.25 32.4502 19.2426 32.4502 18C32.4502 16.7574 31.4428 15.75 30.2002 15.75C28.9576 15.75 27.9502 16.7574 27.9502 18C27.9502 19.2426 28.9576 20.25 30.2002 20.25Z" stroke="#FAFF69" stroke-width="1.5" stroke-linecap="round" stroke-linejoin="round"/>
</g>
<defs>
<clipPath id="clip0_1453_1631">
<rect width="24" height="24" fill="white" transform="translate(12.2002 12)"/>
</clipPath>
</defs>
</svg>
