<svg width="25" height="24" viewBox="0 0 25 24" fill="none" xmlns="http://www.w3.org/2000/svg">
<path d="M20.7141 11.1216C20.693 11.0316 20.6501 10.9481 20.5891 10.8786C20.5281 10.8091 20.451 10.7557 20.3644 10.7232L14.8116 8.64097L16.2178 1.60972C16.2418 1.48971 16.226 1.36515 16.1728 1.25494C16.1196 1.14473 16.0319 1.05487 15.9231 0.998995C15.8142 0.943122 15.69 0.924284 15.5695 0.945337C15.4489 0.96639 15.3385 1.02619 15.255 1.11566L4.75503 12.3657C4.69197 12.4333 4.64655 12.5154 4.62278 12.6047C4.59902 12.6941 4.59764 12.7879 4.61878 12.8779C4.63991 12.9679 4.6829 13.0513 4.74395 13.1207C4.805 13.1902 4.88222 13.2435 4.96878 13.276L10.5216 15.3582L9.11534 22.3894C9.0912 22.5094 9.10688 22.6341 9.16001 22.7444C9.21313 22.8547 9.30081 22.9447 9.40972 23.0007C9.4893 23.0411 9.5773 23.0623 9.66659 23.0625C9.74381 23.0625 9.8202 23.0466 9.89101 23.0158C9.96181 22.985 10.0255 22.94 10.0782 22.8835L20.5782 11.6335C20.6411 11.5659 20.6864 11.4838 20.7101 11.3945C20.7338 11.3053 20.7352 11.2115 20.7141 11.1216ZM10.6041 20.6682L11.715 15.1107C11.7414 14.9797 11.7203 14.8437 11.6555 14.7269C11.5908 14.6101 11.4866 14.5202 11.3616 14.4732L6.14909 12.5185L14.7235 3.33097L13.6153 8.88941C13.589 9.02033 13.6101 9.15635 13.6748 9.27315C13.7396 9.38995 13.8438 9.4799 13.9688 9.52691L19.1813 11.4816L10.6041 20.6682Z" fill="#FAFF69"/>
</svg>
