<svg width="48" height="48" viewBox="0 0 48 48" fill="none" xmlns="http://www.w3.org/2000/svg">
<rect width="48" height="48" rx="8" fill="#171717"/>
<path d="M26.25 19.5001C26.25 19.2528 26.3233 19.0112 26.4607 18.8056C26.598 18.6 26.7932 18.4398 27.0216 18.3452C27.2501 18.2506 27.5014 18.2259 27.7439 18.2741C27.9863 18.3223 28.2091 18.4414 28.3839 18.6162C28.5587 18.791 28.6777 19.0137 28.726 19.2562C28.7742 19.4987 28.7495 19.75 28.6549 19.9784C28.5602 20.2068 28.4 20.4021 28.1945 20.5394C27.9889 20.6768 27.7472 20.7501 27.5 20.7501C27.1685 20.7501 26.8505 20.6184 26.6161 20.384C26.3817 20.1495 26.25 19.8316 26.25 19.5001ZM20.5 18.2501C20.2528 18.2501 20.0111 18.3234 19.8055 18.4607C19.6 18.5981 19.4398 18.7933 19.3452 19.0217C19.2505 19.2501 19.2258 19.5015 19.274 19.7439C19.3222 19.9864 19.4413 20.2091 19.6161 20.384C19.7909 20.5588 20.0137 20.6778 20.2561 20.7261C20.4986 20.7743 20.7499 20.7495 20.9784 20.6549C21.2068 20.5603 21.402 20.4001 21.5393 20.1945C21.6767 19.989 21.75 19.7473 21.75 19.5001C21.75 19.1686 21.6183 18.8506 21.3839 18.6162C21.1495 18.3818 20.8315 18.2501 20.5 18.2501ZM38.75 24.0001C38.75 24.199 38.671 24.3897 38.5303 24.5304C38.3897 24.6711 38.1989 24.7501 38 24.7501H34.75V26.0001C34.7498 27.0188 34.6046 28.0323 34.3188 29.0101L37.3 30.3126C37.4823 30.3921 37.6256 30.5409 37.6983 30.7261C37.7709 30.9113 37.7671 31.1177 37.6875 31.3001C37.6079 31.4824 37.4592 31.6257 37.274 31.6983C37.0888 31.771 36.8823 31.7671 36.7 31.6876L33.7962 30.4188C32.9446 32.3034 31.5675 33.9024 29.8299 35.024C28.0923 36.1455 26.0681 36.7421 24 36.7421C21.9319 36.7421 19.9077 36.1455 18.1701 35.024C16.4325 33.9024 15.0554 32.3034 14.2038 30.4188L11.3 31.6876C11.2097 31.727 11.1126 31.7482 11.0141 31.75C10.9156 31.7519 10.8177 31.7343 10.726 31.6983C10.6343 31.6624 10.5506 31.6087 10.4796 31.5403C10.4087 31.472 10.3519 31.3904 10.3125 31.3001C10.2329 31.1177 10.2291 30.9113 10.3017 30.7261C10.3744 30.5409 10.5177 30.3921 10.7 30.3126L13.6813 29.0101C13.3954 28.0323 13.2502 27.0188 13.25 26.0001V24.7501H10C9.80109 24.7501 9.61032 24.6711 9.46967 24.5304C9.32902 24.3897 9.25 24.199 9.25 24.0001C9.25 23.8012 9.32902 23.6104 9.46967 23.4697C9.61032 23.3291 9.80109 23.2501 10 23.2501H13.25V22.0001C13.2502 20.9814 13.3954 19.9679 13.6813 18.9901L10.7 17.6876C10.5177 17.608 10.3744 17.4593 10.3017 17.2741C10.2291 17.0889 10.2329 16.8824 10.3125 16.7001C10.3921 16.5177 10.5408 16.3745 10.726 16.3018C10.9112 16.2291 11.1177 16.233 11.3 16.3126L14.2038 17.5813C15.0554 15.6967 16.4325 14.0977 18.1701 12.9762C19.9077 11.8546 21.9319 11.2581 24 11.2581C26.0681 11.2581 28.0923 11.8546 29.8299 12.9762C31.5675 14.0977 32.9446 15.6967 33.7962 17.5813L36.7 16.3126C36.8823 16.233 37.0888 16.2291 37.274 16.3018C37.4592 16.3745 37.6079 16.5177 37.6875 16.7001C37.7671 16.8824 37.7709 17.0889 37.6983 17.2741C37.6256 17.4593 37.4823 17.608 37.3 17.6876L34.3188 18.9901C34.6046 19.9679 34.7498 20.9814 34.75 22.0001V23.2501H38C38.1989 23.2501 38.3897 23.3291 38.5303 23.4697C38.671 23.6104 38.75 23.8012 38.75 24.0001ZM14.75 23.2501H33.25V22.0001C33.25 19.5468 32.2754 17.194 30.5407 15.4593C28.806 13.7246 26.4533 12.7501 24 12.7501C21.5467 12.7501 19.194 13.7246 17.4593 15.4593C15.7246 17.194 14.75 19.5468 14.75 22.0001V23.2501ZM23.25 35.2176V24.7501H14.75V26.0001C14.7531 28.3224 15.6286 30.5588 17.2029 32.266C18.7773 33.9732 20.9355 35.0267 23.25 35.2176ZM33.25 24.7501H24.75V35.2176C27.0645 35.0267 29.2227 33.9732 30.7971 32.266C32.3714 30.5588 33.2469 28.3224 33.25 26.0001V24.7501Z" fill="#FCFF74"/>
</svg>
