<svg width="48" height="48" viewBox="0 0 48 48" fill="none" xmlns="http://www.w3.org/2000/svg">
<rect x="0.5" y="0.5" width="47" height="47" rx="7.5" fill="#1F1F1C"/>
<rect x="0.5" y="0.5" width="47" height="47" rx="7.5" stroke="#414141"/>
<g clip-path="url(#clip0_1698_1549)">
<path d="M26.625 21.75C27.2463 21.75 27.75 21.2463 27.75 20.625C27.75 20.0037 27.2463 19.5 26.625 19.5C26.0037 19.5 25.5 20.0037 25.5 20.625C25.5 21.2463 26.0037 21.75 26.625 21.75Z" fill="#FAFF69"/>
<path d="M21.375 21.75C21.9963 21.75 22.5 21.2463 22.5 20.625C22.5 20.0037 21.9963 19.5 21.375 19.5C20.7537 19.5 20.25 20.0037 20.25 20.625C20.25 21.2463 20.7537 21.75 21.375 21.75Z" fill="#FAFF69"/>
<path d="M24 24V33" stroke="#FAFF69" stroke-width="1.5" stroke-linecap="round" stroke-linejoin="round"/>
<path d="M31.5 25.5C31.5 27.4891 30.7098 29.3968 29.3033 30.8033C27.8968 32.2098 25.9891 33 24 33C22.0109 33 20.1032 32.2098 18.6967 30.8033C17.2902 29.3968 16.5 27.4891 16.5 25.5V22.5C16.5 20.5109 17.2902 18.6032 18.6967 17.1967C20.1032 15.7902 22.0109 15 24 15C25.9891 15 27.8968 15.7902 29.3033 17.1967C30.7098 18.6032 31.5 20.5109 31.5 22.5V25.5Z" stroke="#FAFF69" stroke-width="1.5" stroke-linecap="round" stroke-linejoin="round"/>
<path d="M33.75 29.2501L31.0481 28.0698" stroke="#FAFF69" stroke-width="1.5" stroke-linecap="round" stroke-linejoin="round"/>
<path d="M33.75 18.75L31.0481 19.9303" stroke="#FAFF69" stroke-width="1.5" stroke-linecap="round" stroke-linejoin="round"/>
<path d="M14.25 18.75L16.9519 19.9303" stroke="#FAFF69" stroke-width="1.5" stroke-linecap="round" stroke-linejoin="round"/>
<path d="M14.25 29.2501L16.9519 28.0698" stroke="#FAFF69" stroke-width="1.5" stroke-linecap="round" stroke-linejoin="round"/>
<path d="M13.5 24H34.5" stroke="#FAFF69" stroke-width="1.5" stroke-linecap="round" stroke-linejoin="round"/>
</g>
<defs>
<clipPath id="clip0_1698_1549">
<rect width="24" height="24" fill="white" transform="translate(12 12)"/>
</clipPath>
</defs>
</svg>
