<svg width="20" height="20" viewBox="0 0 20 20" fill="none" xmlns="http://www.w3.org/2000/svg">
<path d="M16 8.46809C16 8.56966 15.9597 8.66707 15.8878 8.73889C15.816 8.81071 15.7186 8.85106 15.617 8.85106C15.5154 8.85106 15.418 8.81071 15.3462 8.73889C15.2744 8.66707 15.234 8.56966 15.234 8.46809V5.30787L10.7819 9.76C10.7093 9.82765 10.6133 9.86448 10.5141 9.86273C10.4149 9.86098 10.3202 9.82078 10.25 9.75062C10.1799 9.68045 10.1397 9.58578 10.1379 9.48656C10.1362 9.38735 10.173 9.29132 10.2406 9.21872L14.6921 4.76596H11.5319C11.4303 4.76596 11.3329 4.72561 11.2611 4.65379C11.1893 4.58196 11.1489 4.48455 11.1489 4.38298C11.1489 4.28141 11.1893 4.18399 11.2611 4.11217C11.3329 4.04035 11.4303 4 11.5319 4H15.617C15.7186 4 15.816 4.04035 15.8878 4.11217C15.9597 4.18399 16 4.28141 16 4.38298V8.46809ZM13.5745 10.1277C13.4729 10.1277 13.3755 10.168 13.3037 10.2398C13.2318 10.3117 13.1915 10.4091 13.1915 10.5106V15.1064C13.1915 15.1402 13.178 15.1727 13.1541 15.1967C13.1302 15.2206 13.0977 15.234 13.0638 15.234H4.89362C4.85976 15.234 4.82729 15.2206 4.80335 15.1967C4.77941 15.1727 4.76596 15.1402 4.76596 15.1064V6.93617C4.76596 6.90231 4.77941 6.86984 4.80335 6.8459C4.82729 6.82196 4.85976 6.80851 4.89362 6.80851H9.48936C9.59093 6.80851 9.68835 6.76816 9.76017 6.69634C9.83199 6.62452 9.87234 6.5271 9.87234 6.42553C9.87234 6.32396 9.83199 6.22655 9.76017 6.15473C9.68835 6.0829 9.59093 6.04255 9.48936 6.04255H4.89362C4.65662 6.04255 4.42932 6.1367 4.26173 6.30429C4.09415 6.47187 4 6.69917 4 6.93617V15.1064C4 15.3434 4.09415 15.5707 4.26173 15.7383C4.42932 15.9059 4.65662 16 4.89362 16H13.0638C13.3008 16 13.5281 15.9059 13.6957 15.7383C13.8633 15.5707 13.9574 15.3434 13.9574 15.1064V10.5106C13.9574 10.4091 13.9171 10.3117 13.8453 10.2398C13.7735 10.168 13.676 10.1277 13.5745 10.1277Z" fill="#1F1F1C" stroke="black" stroke-width="0.3"/>
</svg>
