<svg width="24" height="24" viewBox="0 0 24 24" fill="none" xmlns="http://www.w3.org/2000/svg">
<path d="M22.2469 9.17814C22.1695 8.93226 22.0203 8.71516 21.8184 8.55477C21.6166 8.39438 21.3714 8.29804 21.1144 8.27814L15.54 7.79627C15.5063 7.79296 15.4741 7.78057 15.4469 7.76043C15.4197 7.74029 15.3984 7.71315 15.3853 7.68189L13.2075 2.49189C13.1067 2.25513 12.9384 2.05325 12.7237 1.91134C12.509 1.76944 12.2574 1.69379 12 1.69379C11.7427 1.69379 11.491 1.76944 11.2763 1.91134C11.0616 2.05325 10.8934 2.25513 10.7925 2.49189L8.61472 7.68189C8.60167 7.71315 8.5804 7.74029 8.55316 7.76043C8.52592 7.78057 8.49374 7.79296 8.46003 7.79627L2.88565 8.27814C2.62863 8.29804 2.38344 8.39438 2.18162 8.55477C1.9798 8.71516 1.83058 8.93226 1.75315 9.17814C1.67115 9.42438 1.66399 9.68939 1.73257 9.9397C1.80115 10.19 1.9424 10.4144 2.13847 10.5844L6.36753 14.2735C6.39342 14.2965 6.41266 14.326 6.42321 14.359C6.43377 14.392 6.43526 14.4272 6.42753 14.461L5.15628 19.9463C5.09702 20.1988 5.11393 20.4633 5.20486 20.7062C5.2958 20.9492 5.45669 21.1597 5.66722 21.3113C5.87447 21.4642 6.12282 21.5515 6.38017 21.5618C6.63753 21.5722 6.89209 21.5052 7.11097 21.3694L11.9025 18.4631C11.9307 18.4457 11.9632 18.4365 11.9963 18.4365C12.0294 18.4365 12.0619 18.4457 12.09 18.4631L16.8816 21.3694C17.1027 21.5048 17.3591 21.5716 17.6182 21.5615C17.8773 21.5514 18.1276 21.4647 18.3375 21.3125C18.5474 21.1603 18.7075 20.9492 18.7976 20.7061C18.8877 20.4629 18.9038 20.1985 18.8438 19.9463L17.5763 14.4591C17.5685 14.4253 17.57 14.3901 17.5806 14.3571C17.5912 14.3241 17.6104 14.2946 17.6363 14.2716L21.8653 10.5825C22.0604 10.4122 22.2007 10.188 22.2686 9.93806C22.3365 9.68816 22.3289 9.42376 22.2469 9.17814ZM21.1219 9.73314L16.8928 13.4222C16.7126 13.579 16.5786 13.782 16.5053 14.0093C16.4319 14.2366 16.422 14.4797 16.4766 14.7122L17.7441 20.1994C17.7535 20.2363 17.7514 20.2751 17.7382 20.3108C17.7249 20.3464 17.7012 20.3772 17.67 20.3991C17.6418 20.4217 17.6072 20.4346 17.5711 20.4362C17.535 20.4377 17.4994 20.4276 17.4694 20.4075L12.6778 17.5013C12.4736 17.3771 12.2391 17.3114 12 17.3114C11.761 17.3114 11.5265 17.3771 11.3222 17.5013L6.53065 20.4075C6.50067 20.4276 6.46504 20.4377 6.42896 20.4362C6.39288 20.4346 6.35822 20.4217 6.33003 20.3991C6.29888 20.3772 6.27512 20.3464 6.26189 20.3108C6.24866 20.2751 6.2466 20.2363 6.25597 20.1994L7.52347 14.7122C7.57803 14.4797 7.56811 14.2366 7.49476 14.0093C7.42141 13.782 7.28741 13.579 7.10722 13.4222L2.87815 9.73314C2.84923 9.70855 2.82846 9.67575 2.81858 9.63909C2.8087 9.60243 2.81019 9.56363 2.82284 9.52783C2.83231 9.49218 2.85284 9.46045 2.88147 9.43721C2.91011 9.41396 2.94538 9.40039 2.98222 9.39846L8.55753 8.91658C8.79621 8.89625 9.02478 8.81098 9.21846 8.67001C9.41214 8.52905 9.56355 8.33777 9.65628 8.11689L11.8341 2.92689C11.8492 2.89468 11.8732 2.86745 11.9033 2.84837C11.9333 2.82929 11.9682 2.81916 12.0038 2.81916C12.0394 2.81916 12.0742 2.82929 12.1043 2.84837C12.1343 2.86745 12.1583 2.89468 12.1735 2.92689L14.3438 8.11689C14.4362 8.33724 14.587 8.52817 14.78 8.66909C14.973 8.81001 15.2008 8.89559 15.4388 8.91658L21.0141 9.39846C21.0509 9.40039 21.0862 9.41396 21.1148 9.43721C21.1435 9.46045 21.164 9.49218 21.1735 9.52783C21.1866 9.56326 21.1886 9.60183 21.1794 9.63846C21.1702 9.6751 21.1502 9.7081 21.1219 9.73314Z" fill="#FAFF69"/>
</svg>
