<svg width="48" height="48" viewBox="0 0 48 48" fill="none" xmlns="http://www.w3.org/2000/svg">
<rect x="0.5" y="0.5" width="47" height="47" rx="7.5" fill="#1F1F1C"/>
<rect x="0.5" y="0.5" width="47" height="47" rx="7.5" stroke="#414141"/>
<g clip-path="url(#clip0_1698_1535)">
<path d="M18.75 32.25C19.9926 32.25 21 31.2426 21 30C21 28.7574 19.9926 27.75 18.75 27.75C17.5074 27.75 16.5 28.7574 16.5 30C16.5 31.2426 17.5074 32.25 18.75 32.25Z" stroke="#FAFF69" stroke-width="1.5" stroke-linecap="round" stroke-linejoin="round"/>
<path d="M18.75 20.25C19.9926 20.25 21 19.2426 21 18C21 16.7574 19.9926 15.75 18.75 15.75C17.5074 15.75 16.5 16.7574 16.5 18C16.5 19.2426 17.5074 20.25 18.75 20.25Z" stroke="#FAFF69" stroke-width="1.5" stroke-linecap="round" stroke-linejoin="round"/>
<path d="M18.75 20.25V27.75" stroke="#FAFF69" stroke-width="1.5" stroke-linecap="round" stroke-linejoin="round"/>
<path d="M30.75 32.25C31.9926 32.25 33 31.2426 33 30C33 28.7574 31.9926 27.75 30.75 27.75C29.5074 27.75 28.5 28.7574 28.5 30C28.5 31.2426 29.5074 32.25 30.75 32.25Z" stroke="#FAFF69" stroke-width="1.5" stroke-linecap="round" stroke-linejoin="round"/>
<path d="M30.75 27.75V22.3716C30.75 22.1745 30.7112 21.9793 30.6358 21.7972C30.5603 21.6151 30.4497 21.4496 30.3103 21.3103L25.5 16.5" stroke="#FAFF69" stroke-width="1.5" stroke-linecap="round" stroke-linejoin="round"/>
<path d="M25.5 21V16.5H30" stroke="#FAFF69" stroke-width="1.5" stroke-linecap="round" stroke-linejoin="round"/>
</g>
<defs>
<clipPath id="clip0_1698_1535">
<rect width="24" height="24" fill="white" transform="translate(12 12)"/>
</clipPath>
</defs>
</svg>
