<svg width="48" height="48" viewBox="0 0 48 48" fill="none" xmlns="http://www.w3.org/2000/svg">
<rect width="48" height="48" rx="8" fill="#171717"/>
<path d="M20.75 16C20.7499 15.2904 20.5484 14.5955 20.1691 13.9959C19.7898 13.3963 19.2481 12.9166 18.6071 12.6125C17.966 12.3085 17.2518 12.1925 16.5475 12.2781C15.8431 12.3638 15.1776 12.6474 14.628 13.0962C14.0785 13.545 13.6675 14.1405 13.4429 14.8136C13.2183 15.4866 13.1892 16.2095 13.359 16.8984C13.5289 17.5873 13.8907 18.2139 14.4024 18.7054C14.9142 19.1968 15.5548 19.5331 16.25 19.675V28.325C15.3395 28.5108 14.5304 29.0282 13.9796 29.7767C13.4288 30.5252 13.1756 31.4515 13.269 32.3761C13.3624 33.3007 13.7958 34.1577 14.4851 34.7809C15.1745 35.4041 16.0707 35.7492 17 35.7492C17.9293 35.7492 18.8255 35.4041 19.5149 34.7809C20.2042 34.1577 20.6376 33.3007 20.731 32.3761C20.8244 31.4515 20.5712 30.5252 20.0204 29.7767C19.4696 29.0282 18.6605 28.5108 17.75 28.325V19.675C18.5965 19.501 19.3571 19.0404 19.9036 18.371C20.4501 17.7016 20.749 16.8641 20.75 16ZM14.75 16C14.75 15.555 14.882 15.1199 15.1292 14.7499C15.3764 14.3799 15.7278 14.0915 16.139 13.9212C16.5501 13.7509 17.0025 13.7064 17.439 13.7932C17.8754 13.88 18.2763 14.0943 18.591 14.409C18.9057 14.7236 19.12 15.1246 19.2068 15.561C19.2936 15.9975 19.249 16.4499 19.0787 16.861C18.9084 17.2721 18.6201 17.6235 18.25 17.8708C17.88 18.118 17.445 18.25 17 18.25C16.4033 18.25 15.831 18.0129 15.409 17.591C14.9871 17.169 14.75 16.5967 14.75 16ZM19.25 32C19.25 32.445 19.118 32.88 18.8708 33.25C18.6236 33.62 18.2722 33.9084 17.861 34.0787C17.4499 34.249 16.9975 34.2936 16.5611 34.2067C16.1246 34.1199 15.7237 33.9056 15.409 33.591C15.0944 33.2763 14.8801 32.8754 14.7932 32.4389C14.7064 32.0025 14.751 31.5501 14.9213 31.1389C15.0916 30.7278 15.38 30.3764 15.75 30.1292C16.12 29.8819 16.555 29.75 17 29.75C17.5967 29.75 18.169 29.987 18.591 30.409C19.013 30.8309 19.25 31.4032 19.25 32ZM33.75 28.325V23.485C33.7523 22.5982 33.5787 21.7199 33.2392 20.9007C32.8998 20.0815 32.4013 19.3377 31.7725 18.7125L27.81 14.75H32C32.1989 14.75 32.3897 14.671 32.5303 14.5303C32.671 14.3896 32.75 14.1989 32.75 14C32.75 13.8011 32.671 13.6103 32.5303 13.4696C32.3897 13.329 32.1989 13.25 32 13.25H26C25.8011 13.25 25.6103 13.329 25.4697 13.4696C25.329 13.6103 25.25 13.8011 25.25 14V20C25.25 20.1989 25.329 20.3896 25.4697 20.5303C25.6103 20.671 25.8011 20.75 26 20.75C26.1989 20.75 26.3897 20.671 26.5303 20.5303C26.671 20.3896 26.75 20.1989 26.75 20V15.81L30.7125 19.7725C31.2014 20.259 31.589 20.8376 31.8529 21.4748C32.1168 22.112 32.2518 22.7953 32.25 23.485V28.325C31.3395 28.5108 30.5304 29.0282 29.9796 29.7767C29.4288 30.5252 29.1756 31.4515 29.269 32.3761C29.3624 33.3007 29.7958 34.1577 30.4851 34.7809C31.1745 35.4041 32.0707 35.7492 33 35.7492C33.9293 35.7492 34.8255 35.4041 35.5149 34.7809C36.2042 34.1577 36.6376 33.3007 36.731 32.3761C36.8244 31.4515 36.5712 30.5252 36.0204 29.7767C35.4696 29.0282 34.6605 28.5108 33.75 28.325ZM33 34.25C32.555 34.25 32.12 34.118 31.75 33.8708C31.38 33.6235 31.0916 33.2721 30.9213 32.861C30.751 32.4499 30.7064 31.9975 30.7932 31.561C30.8801 31.1246 31.0943 30.7236 31.409 30.409C31.7237 30.0943 32.1246 29.88 32.5611 29.7932C32.9975 29.7064 33.4499 29.7509 33.861 29.9212C34.2722 30.0915 34.6236 30.3799 34.8708 30.7499C35.118 31.1199 35.25 31.555 35.25 32C35.25 32.5967 35.013 33.169 34.591 33.591C34.169 34.0129 33.5967 34.25 33 34.25Z" fill="#FCFF74"/>
</svg>
