<svg width="24" height="24" viewBox="0 0 24 24" fill="none" xmlns="http://www.w3.org/2000/svg">
<g clip-path="url(#clip0_1177_3747)">
<path d="M3.75 21C4.99264 21 6 19.9926 6 18.75C6 17.5074 4.99264 16.5 3.75 16.5C2.50736 16.5 1.5 17.5074 1.5 18.75C1.5 19.9926 2.50736 21 3.75 21Z" stroke="#FCFF74" stroke-width="0.75" stroke-linecap="round" stroke-linejoin="round"/>
<path d="M9 11.25C10.2426 11.25 11.25 10.2426 11.25 9C11.25 7.75736 10.2426 6.75 9 6.75C7.75736 6.75 6.75 7.75736 6.75 9C6.75 10.2426 7.75736 11.25 9 11.25Z" stroke="#FCFF74" stroke-width="0.75" stroke-linecap="round" stroke-linejoin="round"/>
<path d="M15 17.25C16.2426 17.25 17.25 16.2426 17.25 15C17.25 13.7574 16.2426 12.75 15 12.75C13.7574 12.75 12.75 13.7574 12.75 15C12.75 16.2426 13.7574 17.25 15 17.25Z" stroke="#FCFF74" stroke-width="0.75" stroke-linecap="round" stroke-linejoin="round"/>
<path d="M20.25 7.5C21.4926 7.5 22.5 6.49264 22.5 5.25C22.5 4.00736 21.4926 3 20.25 3C19.0074 3 18 4.00736 18 5.25C18 6.49264 19.0074 7.5 20.25 7.5Z" stroke="#FCFF74" stroke-width="0.75" stroke-linecap="round" stroke-linejoin="round"/>
<path d="M7.93314 10.981L4.81689 16.7691" stroke="#FCFF74" stroke-width="0.75" stroke-linecap="round" stroke-linejoin="round"/>
<path d="M13.4091 13.4091L10.5909 10.5909" stroke="#FCFF74" stroke-width="0.75" stroke-linecap="round" stroke-linejoin="round"/>
<path d="M19.1831 7.23096L16.0669 13.0191" stroke="#FCFF74" stroke-width="0.75" stroke-linecap="round" stroke-linejoin="round"/>
</g>
<defs>
<clipPath id="clip0_1177_3747">
<rect width="24" height="24" fill="white"/>
</clipPath>
</defs>
</svg>
