<svg width="25" height="24" viewBox="0 0 25 24" fill="none" xmlns="http://www.w3.org/2000/svg">
<path d="M21.13 14.1159C21.1476 14.1877 21.1509 14.2623 21.1397 14.3353C21.1285 14.4084 21.1031 14.4785 21.0648 14.5417C21.0265 14.605 20.9761 14.66 20.9165 14.7037C20.8569 14.7474 20.7892 14.779 20.7175 14.7966L18.2218 15.4097L18.8781 17.8547C18.8972 17.926 18.9021 18.0005 18.8925 18.0737C18.8829 18.1469 18.859 18.2176 18.822 18.2816C18.7851 18.3455 18.736 18.4016 18.6774 18.4466C18.6188 18.4916 18.5519 18.5246 18.4806 18.5438C18.4331 18.5559 18.3843 18.5622 18.3353 18.5625C18.2113 18.5626 18.0908 18.5217 17.9925 18.4463C17.8942 18.3708 17.8235 18.265 17.7915 18.1453L17.0462 15.375L12.8959 12.9741V17.7675L14.9809 19.8525C15.0362 19.904 15.0805 19.9661 15.1112 20.0351C15.142 20.1041 15.1585 20.1786 15.1598 20.2541C15.1612 20.3296 15.1473 20.4047 15.119 20.4747C15.0907 20.5447 15.0486 20.6084 14.9952 20.6618C14.9418 20.7152 14.8781 20.7573 14.8081 20.7856C14.7381 20.8139 14.663 20.8278 14.5875 20.8265C14.512 20.8251 14.4375 20.8086 14.3685 20.7778C14.2995 20.7471 14.2374 20.7028 14.1859 20.6475L12.3334 18.7959L10.4809 20.6475C10.3743 20.7469 10.2332 20.801 10.0875 20.7984C9.94178 20.7958 9.80274 20.7368 9.69968 20.6337C9.59662 20.5307 9.53758 20.3916 9.53501 20.2459C9.53244 20.1002 9.58653 19.9591 9.68589 19.8525L11.7709 17.7675V12.9741L7.62058 15.375L6.87714 18.15C6.84426 18.2689 6.77323 18.3736 6.67498 18.4481C6.57673 18.5227 6.45671 18.5629 6.33339 18.5625C6.28437 18.5622 6.23557 18.5559 6.18808 18.5438C6.11674 18.5246 6.04986 18.4916 5.99127 18.4466C5.93269 18.4016 5.88353 18.3455 5.84662 18.2816C5.80971 18.2176 5.78576 18.1469 5.77615 18.0737C5.76653 18.0005 5.77144 17.926 5.79058 17.8547L6.44683 15.4097L3.95121 14.7966C3.80625 14.761 3.68135 14.6693 3.60399 14.5417C3.52664 14.414 3.50315 14.2609 3.53871 14.1159C3.57426 13.971 3.66595 13.8461 3.79359 13.7687C3.92123 13.6914 4.07437 13.6679 4.21933 13.7034L7.05339 14.4L11.2084 12L7.05152 9.60001L4.21746 10.2966C4.17359 10.3074 4.12857 10.3127 4.08339 10.3125C3.94571 10.3128 3.8127 10.2625 3.70958 10.1713C3.60645 10.0801 3.54037 9.9542 3.52384 9.81751C3.50732 9.68082 3.5415 9.54281 3.61992 9.42964C3.69834 9.31647 3.81555 9.23599 3.94933 9.20344L6.44496 8.59032L5.78871 6.14532C5.76787 6.07343 5.76159 5.9981 5.77024 5.92375C5.77889 5.8494 5.80229 5.77753 5.83907 5.71234C5.87585 5.64715 5.92527 5.58995 5.98444 5.54411C6.0436 5.49826 6.11132 5.46468 6.18363 5.44534C6.25594 5.426 6.33138 5.42129 6.40553 5.43147C6.47969 5.44166 6.55106 5.46655 6.61548 5.50467C6.67989 5.54279 6.73605 5.59339 6.78066 5.65349C6.82527 5.7136 6.85743 5.782 6.87527 5.85469L7.61871 8.62969L11.7709 11.0259V6.23251L9.68589 4.14751C9.58653 4.04088 9.53244 3.89984 9.53501 3.75411C9.53758 3.60839 9.59662 3.46935 9.69968 3.36629C9.80274 3.26323 9.94178 3.2042 10.0875 3.20163C10.2332 3.19905 10.3743 3.25315 10.4809 3.35251L12.3334 5.20407L14.1859 3.35251C14.2925 3.25315 14.4336 3.19905 14.5793 3.20163C14.725 3.2042 14.8641 3.26323 14.9671 3.36629C15.0702 3.46935 15.1292 3.60839 15.1318 3.75411C15.1343 3.89984 15.0803 4.04088 14.9809 4.14751L12.8959 6.23251V11.0259L17.0462 8.62969L17.7896 5.85469C17.8075 5.782 17.8396 5.7136 17.8843 5.65349C17.9289 5.59339 17.985 5.54279 18.0494 5.50467C18.1139 5.46655 18.1852 5.44166 18.2594 5.43147C18.3335 5.42129 18.409 5.426 18.4813 5.44534C18.5536 5.46468 18.6213 5.49826 18.6805 5.54411C18.7396 5.58995 18.7891 5.64715 18.8258 5.71234C18.8626 5.77753 18.886 5.8494 18.8947 5.92375C18.9033 5.9981 18.897 6.07343 18.8762 6.14532L18.22 8.59032L20.7156 9.20344C20.8492 9.23595 20.9663 9.31628 21.0447 9.42926C21.1231 9.54223 21.1575 9.68002 21.1412 9.81658C21.1249 9.95314 21.0592 10.079 20.9564 10.1704C20.8536 10.2618 20.7209 10.3123 20.5834 10.3125C20.5382 10.3127 20.4932 10.3074 20.4493 10.2966L17.6153 9.60001L13.4584 12L17.6153 14.4L20.4493 13.7034C20.5211 13.6858 20.5957 13.6825 20.6687 13.6937C20.7418 13.7049 20.8119 13.7303 20.8751 13.7686C20.9383 13.8069 20.9934 13.8573 21.0371 13.9169C21.0808 13.9765 21.1124 14.0442 21.13 14.1159Z" fill="#FAFF69"/>
</svg>
