<svg width="32" height="32" viewBox="0 0 32 32" fill="none" xmlns="http://www.w3.org/2000/svg">
<path d="M29.8981 12.1573C29.773 11.773 29.5371 11.4342 29.2199 11.1838C28.9027 10.9333 28.5184 10.7823 28.1156 10.7498L20.7406 10.1548L17.8931 3.26858C17.7391 2.89335 17.477 2.57239 17.1401 2.3465C16.8032 2.12061 16.4068 2 16.0012 2C15.5956 2 15.1992 2.12061 14.8623 2.3465C14.5254 2.57239 14.2633 2.89335 14.1093 3.26858L11.2643 10.1536L3.88557 10.7498C3.48204 10.784 3.09756 10.9364 2.78029 11.1881C2.46302 11.4398 2.22708 11.7795 2.10202 12.1646C1.97697 12.5498 1.96836 12.9633 2.07728 13.3534C2.1862 13.7434 2.4078 14.0927 2.71432 14.3573L8.33932 19.2111L6.62557 26.4686C6.52973 26.8629 6.55319 27.2767 6.693 27.6577C6.8328 28.0386 7.08263 28.3694 7.41077 28.608C7.73892 28.8467 8.13058 28.9825 8.53604 28.9982C8.9415 29.0139 9.34248 28.9087 9.68807 28.6961L16.0006 24.8111L22.3168 28.6961C22.6625 28.9062 23.0627 29.0093 23.4669 28.9925C23.8711 28.9756 24.2613 28.8395 24.5883 28.6014C24.9153 28.3632 25.1646 28.0336 25.3047 27.6541C25.4448 27.2746 25.4694 26.8621 25.3756 26.4686L23.6556 19.2098L29.2806 14.3561C29.5896 14.0919 29.8132 13.7419 29.9231 13.3504C30.0331 12.959 30.0243 12.5438 29.8981 12.1573ZM27.9806 12.8411L21.8931 18.0911C21.7542 18.2107 21.651 18.3662 21.5945 18.5406C21.5381 18.715 21.5307 18.9015 21.5731 19.0798L23.4331 26.9298C23.4379 26.9406 23.4384 26.9529 23.4344 26.9641C23.4305 26.9752 23.4224 26.9845 23.4118 26.9898C23.3893 27.0073 23.3831 27.0036 23.3643 26.9898L16.5243 22.7836C16.3668 22.6867 16.1855 22.6355 16.0006 22.6355C15.8157 22.6355 15.6344 22.6867 15.4768 22.7836L8.63682 26.9923C8.61807 27.0036 8.61307 27.0073 8.58932 26.9923C8.57877 26.987 8.57069 26.9777 8.56673 26.9666C8.56278 26.9554 8.56326 26.9432 8.56807 26.9323L10.4281 19.0823C10.4705 18.904 10.463 18.7175 10.4066 18.5431C10.3502 18.3687 10.2469 18.2132 10.1081 18.0936L4.02057 12.8436C4.00557 12.8311 3.99182 12.8198 4.00432 12.7811C4.01682 12.7423 4.02682 12.7473 4.04557 12.7448L12.0356 12.0998C12.2188 12.0841 12.3942 12.0181 12.5424 11.9092C12.6906 11.8003 12.8059 11.6526 12.8756 11.4823L15.9531 4.03108C15.9631 4.00983 15.9668 3.99983 15.9968 3.99983C16.0268 3.99983 16.0306 4.00983 16.0406 4.03108L19.1256 11.4823C19.1959 11.6526 19.3119 11.8002 19.4608 11.9087C19.6097 12.0172 19.7857 12.0825 19.9693 12.0973L27.9593 12.7423C27.9781 12.7423 27.9893 12.7423 28.0006 12.7786C28.0118 12.8148 28.0006 12.8286 27.9806 12.8411Z" fill="#151515" stroke="black" stroke-width="0.5"/>
</svg>
