<svg width="48" height="48" viewBox="0 0 48 48" fill="none" xmlns="http://www.w3.org/2000/svg">
<rect width="48" height="48" rx="8" fill="#171717"/>
<path d="M37.8976 20.1576C37.7726 19.7732 37.5366 19.4345 37.2194 19.184C36.9022 18.9335 36.5179 18.7826 36.1151 18.7501L28.7401 18.1551L25.8926 11.2688C25.7386 10.8936 25.4765 10.5726 25.1396 10.3467C24.8027 10.1209 24.4063 10.0002 24.0007 10.0002C23.5951 10.0002 23.1987 10.1209 22.8618 10.3467C22.5249 10.5726 22.2628 10.8936 22.1088 11.2688L19.2638 18.1538L11.8851 18.7501C11.4816 18.7842 11.0971 18.9367 10.7798 19.1883C10.4625 19.44 10.2266 19.7797 10.1015 20.1649C9.97648 20.5501 9.96787 20.9636 10.0768 21.3536C10.1857 21.7437 10.4073 22.0929 10.7138 22.3576L16.3388 27.2113L14.6251 34.4688C14.5292 34.8631 14.5527 35.277 14.6925 35.6579C14.8323 36.0388 15.0821 36.3696 15.4103 36.6083C15.7384 36.847 16.1301 36.9828 16.5356 36.9984C16.941 37.0141 17.342 36.909 17.6876 36.6963L24.0001 32.8113L30.3163 36.6963C30.662 36.9064 31.0622 37.0096 31.4664 36.9927C31.8706 36.9759 32.2608 36.8398 32.5878 36.6016C32.9149 36.3635 33.1641 36.0339 33.3042 35.6544C33.4443 35.2748 33.469 34.8623 33.3751 34.4688L31.6551 27.2101L37.2801 22.3563C37.5891 22.0921 37.8127 21.7421 37.9226 21.3507C38.0326 20.9593 38.0238 20.544 37.8976 20.1576ZM35.9801 20.8413L29.8926 26.0913C29.7538 26.211 29.6505 26.3665 29.5941 26.5409C29.5376 26.7152 29.5302 26.9018 29.5726 27.0801L31.4326 34.9301C31.4374 34.9409 31.4379 34.9531 31.4339 34.9643C31.43 34.9755 31.4219 34.9847 31.4113 34.9901C31.3888 35.0076 31.3826 35.0038 31.3638 34.9901L24.5238 30.7838C24.3663 30.687 24.185 30.6357 24.0001 30.6357C23.8152 30.6357 23.6339 30.687 23.4763 30.7838L16.6363 34.9926C16.6176 35.0038 16.6126 35.0076 16.5888 34.9926C16.5783 34.9872 16.5702 34.978 16.5662 34.9668C16.5623 34.9556 16.5628 34.9434 16.5676 34.9326L18.4276 27.0826C18.47 26.9043 18.4625 26.7177 18.4061 26.5434C18.3497 26.369 18.2464 26.2135 18.1076 26.0938L12.0201 20.8438C12.0051 20.8313 11.9913 20.8201 12.0038 20.7813C12.0163 20.7426 12.0263 20.7476 12.0451 20.7451L20.0351 20.1001C20.2183 20.0844 20.3937 20.0184 20.5419 19.9094C20.6901 19.8005 20.8054 19.6528 20.8751 19.4826L23.9526 12.0313C23.9626 12.0101 23.9663 12.0001 23.9963 12.0001C24.0263 12.0001 24.0301 12.0101 24.0401 12.0313L27.1251 19.4826C27.1954 19.6529 27.3114 19.8004 27.4603 19.9089C27.6092 20.0175 27.7852 20.0827 27.9688 20.0976L35.9588 20.7426C35.9776 20.7426 35.9888 20.7426 36.0001 20.7788C36.0113 20.8151 36.0001 20.8288 35.9801 20.8413Z" fill="#FAFF69"/>
</svg>
