<svg width="106" height="61" viewBox="0 0 106 61" fill="none" xmlns="http://www.w3.org/2000/svg">
<mask id="path-1-inside-1_725_996" fill="white">
<path fill-rule="evenodd" clip-rule="evenodd" d="M4 0C1.79086 0 0 1.79086 0 4V47C0 49.2091 1.79086 51 4 51H42.7158L51.8701 60.1542C52.6511 60.9353 53.9174 60.9353 54.6985 60.1542L63.8527 51H102C104.209 51 106 49.2091 106 47V4C106 1.79086 104.209 0 102 0H4Z"/>
</mask>
<path fill-rule="evenodd" clip-rule="evenodd" d="M4 0C1.79086 0 0 1.79086 0 4V47C0 49.2091 1.79086 51 4 51H42.7158L51.8701 60.1542C52.6511 60.9353 53.9174 60.9353 54.6985 60.1542L63.8527 51H102C104.209 51 106 49.2091 106 47V4C106 1.79086 104.209 0 102 0H4Z" fill="#3F3F3F"/>
<path d="M42.7158 51L43.4229 50.2929L43.13 50H42.7158V51ZM54.6985 60.1542L55.4056 60.8613H55.4056L54.6985 60.1542ZM63.8527 51V50H63.4385L63.1456 50.2929L63.8527 51ZM1 4C1 2.34315 2.34315 1 4 1V-1C1.23858 -1 -1 1.23858 -1 4H1ZM1 47V4H-1V47H1ZM4 50C2.34314 50 1 48.6569 1 47H-1C-1 49.7614 1.23857 52 4 52V50ZM42.7158 50H4V52H42.7158V50ZM52.5772 59.4471L43.4229 50.2929L42.0087 51.7071L51.1629 60.8613L52.5772 59.4471ZM53.9914 59.4471C53.6009 59.8377 52.9677 59.8377 52.5772 59.4471L51.1629 60.8613C52.3345 62.0329 54.234 62.0329 55.4056 60.8613L53.9914 59.4471ZM63.1456 50.2929L53.9914 59.4471L55.4056 60.8613L64.5598 51.7071L63.1456 50.2929ZM102 50H63.8527V52H102V50ZM105 47C105 48.6569 103.657 50 102 50V52C104.761 52 107 49.7614 107 47H105ZM105 4V47H107V4H105ZM102 1C103.657 1 105 2.34314 105 4H107C107 1.23858 104.761 -1 102 -1V1ZM4 1H102V-1H4V1Z" fill="#626262" mask="url(#path-1-inside-1_725_996)"/>
</svg>
