<svg width="48" height="48" viewBox="0 0 48 48" fill="none" xmlns="http://www.w3.org/2000/svg">
<rect width="48" height="48" rx="8" fill="#1F1F1C"/>
<path d="M22.9921 26.8048C23.9973 26.1356 24.7605 25.1607 25.1687 24.0243C25.577 22.8878 25.6087 21.6501 25.2591 20.4942C24.9095 19.3384 24.1973 18.3257 23.2276 17.6059C22.258 16.8862 21.0825 16.4976 19.8749 16.4976C18.6674 16.4976 17.4918 16.8862 16.5222 17.6059C15.5526 18.3257 14.8403 19.3384 14.4908 20.4942C14.1412 21.6501 14.1729 22.8878 14.5811 24.0243C14.9894 25.1607 15.7525 26.1356 16.7577 26.8048C14.9394 27.475 13.3866 28.7151 12.3309 30.3402C12.2754 30.4226 12.2368 30.5153 12.2175 30.6128C12.1981 30.7103 12.1983 30.8106 12.2181 30.908C12.2379 31.0055 12.2768 31.098 12.3327 31.1802C12.3885 31.2624 12.4601 31.3327 12.5434 31.387C12.6266 31.4413 12.7199 31.4785 12.8176 31.4965C12.9154 31.5144 13.0157 31.5128 13.1128 31.4916C13.21 31.4705 13.3019 31.4302 13.3833 31.3732C13.4647 31.3162 13.534 31.2435 13.5871 31.1595C14.2681 30.1121 15.1999 29.2515 16.298 28.6556C17.3961 28.0598 18.6256 27.7477 19.8749 27.7477C21.1242 27.7477 22.3538 28.0598 23.4518 28.6556C24.5499 29.2515 25.4817 30.1121 26.1627 31.1595C26.2727 31.323 26.4427 31.4367 26.6358 31.4759C26.8289 31.5151 27.0297 31.4767 27.1947 31.369C27.3598 31.2614 27.4758 31.0931 27.5178 30.9006C27.5598 30.708 27.5243 30.5067 27.419 30.3402C26.3633 28.7151 24.8104 27.475 22.9921 26.8048ZM15.7499 22.1248C15.7499 21.309 15.9919 20.5115 16.4451 19.8331C16.8984 19.1548 17.5426 18.626 18.2964 18.3138C19.0501 18.0016 19.8795 17.9199 20.6797 18.0791C21.4798 18.2383 22.2148 18.6311 22.7917 19.208C23.3686 19.7849 23.7615 20.5199 23.9207 21.3201C24.0798 22.1203 23.9981 22.9497 23.6859 23.7034C23.3737 24.4572 22.845 25.1014 22.1667 25.5547C21.4883 26.0079 20.6908 26.2498 19.8749 26.2498C18.7813 26.2486 17.7328 25.8136 16.9595 25.0403C16.1862 24.267 15.7512 23.2185 15.7499 22.1248ZM35.4506 31.378C35.284 31.4866 35.081 31.5246 34.8864 31.4837C34.6918 31.4427 34.5214 31.3261 34.4127 31.1595C33.7326 30.1115 32.8008 29.2505 31.7025 28.6549C30.6042 28.0593 29.3743 27.7482 28.1249 27.7498C27.926 27.7498 27.7352 27.6708 27.5946 27.5302C27.4539 27.3895 27.3749 27.1988 27.3749 26.9998C27.3749 26.8009 27.4539 26.6102 27.5946 26.4695C27.7352 26.3289 27.926 26.2498 28.1249 26.2498C28.7324 26.2493 29.3322 26.1145 29.8816 25.8553C30.431 25.596 30.9163 25.2186 31.3029 24.75C31.6895 24.2814 31.9678 23.7332 32.118 23.1446C32.2682 22.556 32.2865 21.9415 32.1716 21.345C32.0568 20.7485 31.8116 20.1847 31.4536 19.6939C31.0956 19.2031 30.6337 18.7975 30.1007 18.5059C29.5678 18.2144 28.977 18.0442 28.3707 18.0074C27.7643 17.9706 27.1573 18.0683 26.5931 18.2933C26.5011 18.333 26.402 18.354 26.3018 18.3548C26.2016 18.3557 26.1022 18.3364 26.0095 18.2982C25.9169 18.26 25.8328 18.2036 25.7623 18.1324C25.6918 18.0611 25.6363 17.9765 25.5991 17.8834C25.5619 17.7903 25.5437 17.6908 25.5456 17.5905C25.5475 17.4903 25.5695 17.3915 25.6102 17.3C25.651 17.2084 25.7097 17.1259 25.7828 17.0574C25.856 16.9889 25.9421 16.9357 26.0362 16.9011C27.3275 16.3861 28.7639 16.3675 30.0681 16.8491C31.3723 17.3306 32.452 18.278 33.0989 19.5087C33.7458 20.7393 33.914 22.1659 33.5711 23.5132C33.2283 24.8605 32.3986 26.0332 31.2421 26.8048C33.0604 27.475 34.6133 28.7151 35.669 30.3402C35.7776 30.5067 35.8156 30.7097 35.7747 30.9043C35.7337 31.0989 35.6171 31.2693 35.4506 31.378Z" fill="#FAFF69"/>
</svg>
