<svg width="49" height="48" viewBox="0 0 49 48" fill="none" xmlns="http://www.w3.org/2000/svg">
<rect x="1" y="0.5" width="47" height="47" rx="7.5" fill="#1F1F1C"/>
<rect x="1" y="0.5" width="47" height="47" rx="7.5" stroke="#414141"/>
<g clip-path="url(#clip0_1701_1736)">
<path d="M20.375 27C23.0674 27 25.25 24.8174 25.25 22.125C25.25 19.4326 23.0674 17.25 20.375 17.25C17.6826 17.25 15.5 19.4326 15.5 22.125C15.5 24.8174 17.6826 27 20.375 27Z" stroke="#FAFF69" stroke-width="1.5" stroke-linecap="round" stroke-linejoin="round"/>
<path d="M13.459 30.75C14.2082 29.5982 15.2332 28.6517 16.4409 27.9965C17.6487 27.3412 19.0009 26.998 20.375 26.998C21.749 26.998 23.1013 27.3412 24.309 27.9965C25.5168 28.6517 26.5418 29.5982 27.2909 30.75" stroke="#FAFF69" stroke-width="1.5" stroke-linecap="round" stroke-linejoin="round"/>
<path d="M28.625 27C29.999 26.9992 31.3513 27.3418 32.5592 27.9967C33.767 28.6517 34.792 29.5981 35.5409 30.75" stroke="#FAFF69" stroke-width="1.5" stroke-linecap="round" stroke-linejoin="round"/>
<path d="M26.8147 17.5969C27.4816 17.3309 28.1989 17.2155 28.9156 17.2589C29.6322 17.3023 30.3304 17.5035 30.9602 17.8481C31.5901 18.1926 32.1361 18.672 32.5592 19.252C32.9823 19.8321 33.2721 20.4984 33.4078 21.2034C33.5435 21.9084 33.5219 22.6346 33.3444 23.3303C33.1669 24.026 32.8379 24.6738 32.381 25.2276C31.9241 25.7814 31.3505 26.2274 30.7012 26.5338C30.0519 26.8402 29.343 26.9994 28.625 27" stroke="#FAFF69" stroke-width="1.5" stroke-linecap="round" stroke-linejoin="round"/>
</g>
<defs>
<clipPath id="clip0_1701_1736">
<rect width="24" height="24" fill="white" transform="translate(12.5 12)"/>
</clipPath>
</defs>
</svg>
