<svg width="24" height="24" viewBox="0 0 24 24" fill="none" xmlns="http://www.w3.org/2000/svg">
<path d="M10.9921 14.8048C11.9973 14.1356 12.7605 13.1607 13.1687 12.0243C13.577 10.8878 13.6087 9.65012 13.2591 8.49425C12.9095 7.33838 12.1973 6.32569 11.2276 5.60593C10.258 4.88617 9.0825 4.49756 7.87492 4.49756C6.66735 4.49756 5.49184 4.88617 4.52221 5.60593C3.55258 6.32569 2.84032 7.33838 2.49076 8.49425C2.14119 9.65012 2.17288 10.8878 2.58114 12.0243C2.9894 13.1607 3.75255 14.1356 4.75774 14.8048C2.93945 15.475 1.38659 16.7151 0.330862 18.3402C0.275377 18.4226 0.236837 18.5153 0.217482 18.6128C0.198127 18.7103 0.198344 18.8106 0.218119 18.908C0.237895 19.0055 0.276835 19.098 0.332676 19.1802C0.388516 19.2624 0.460144 19.3327 0.543396 19.387C0.626647 19.4413 0.719861 19.4785 0.81762 19.4965C0.915378 19.5144 1.01573 19.5128 1.11285 19.4916C1.20996 19.4705 1.3019 19.4302 1.38332 19.3732C1.46473 19.3162 1.53401 19.2435 1.58711 19.1595C2.2681 18.1121 3.19995 17.2515 4.29802 16.6556C5.3961 16.0598 6.62562 15.7477 7.87492 15.7477C9.12423 15.7477 10.3538 16.0598 11.4518 16.6556C12.5499 17.2515 13.4817 18.1121 14.1627 19.1595C14.2727 19.323 14.4427 19.4367 14.6358 19.4759C14.8289 19.5151 15.0297 19.4767 15.1947 19.369C15.3598 19.2614 15.4758 19.0931 15.5178 18.9006C15.5598 18.708 15.5243 18.5067 15.419 18.3402C14.3633 16.7151 12.8104 15.475 10.9921 14.8048ZM3.74992 10.1248C3.74992 9.30899 3.99185 8.51147 4.44511 7.83311C4.89837 7.15476 5.54261 6.62605 6.29636 6.31384C7.0501 6.00163 7.8795 5.91994 8.67967 6.0791C9.47984 6.23827 10.2148 6.63113 10.7917 7.20803C11.3686 7.78492 11.7615 8.51992 11.9207 9.32009C12.0798 10.1203 11.9981 10.9497 11.6859 11.7034C11.3737 12.4572 10.845 13.1014 10.1667 13.5547C9.4883 14.0079 8.69077 14.2498 7.87492 14.2498C6.78129 14.2486 5.7328 13.8136 4.95948 13.0403C4.18616 12.267 3.75117 11.2185 3.74992 10.1248ZM23.4506 19.378C23.284 19.4866 23.081 19.5246 22.8864 19.4837C22.6918 19.4427 22.5214 19.3261 22.4127 19.1595C21.7326 18.1115 20.8008 17.2505 19.7025 16.6549C18.6042 16.0593 17.3743 15.7482 16.1249 15.7498C15.926 15.7498 15.7352 15.6708 15.5946 15.5302C15.4539 15.3895 15.3749 15.1988 15.3749 14.9998C15.3749 14.8009 15.4539 14.6102 15.5946 14.4695C15.7352 14.3289 15.926 14.2498 16.1249 14.2498C16.7324 14.2493 17.3322 14.1145 17.8816 13.8553C18.431 13.596 18.9163 13.2186 19.3029 12.75C19.6895 12.2814 19.9678 11.7332 20.118 11.1446C20.2682 10.556 20.2865 9.9415 20.1716 9.34498C20.0568 8.74846 19.8116 8.18468 19.4536 7.6939C19.0956 7.20312 18.6337 6.79747 18.1007 6.50593C17.5678 6.2144 16.977 6.04416 16.3707 6.0074C15.7643 5.97064 15.1573 6.06826 14.5931 6.29328C14.5011 6.33305 14.402 6.35398 14.3018 6.35482C14.2016 6.35567 14.1022 6.33642 14.0095 6.29821C13.9169 6.26 13.8328 6.2036 13.7623 6.13236C13.6918 6.06111 13.6363 5.97645 13.5991 5.88339C13.5619 5.79033 13.5437 5.69076 13.5456 5.59055C13.5475 5.49034 13.5695 5.39152 13.6102 5.29995C13.651 5.20838 13.7097 5.1259 13.7828 5.0574C13.856 4.98889 13.9421 4.93574 14.0362 4.90109C15.3275 4.38608 16.7639 4.36754 18.0681 4.84907C19.3723 5.33059 20.452 6.27805 21.0989 7.50867C21.7458 8.73929 21.914 10.1659 21.5711 11.5132C21.2283 12.8605 20.3986 14.0332 19.2421 14.8048C21.0604 15.475 22.6133 16.7151 23.669 18.3402C23.7776 18.5067 23.8156 18.7097 23.7747 18.9043C23.7337 19.0989 23.6171 19.2693 23.4506 19.378Z" fill="#FAFF69"/>
</svg>
