<svg width="48" height="48" viewBox="0 0 48 48" fill="none" xmlns="http://www.w3.org/2000/svg">
<g clip-path="url(#clip0_1_7)">
<path d="M40 0H8C3.58172 0 0 3.58172 0 8V40C0 44.4183 3.58172 48 8 48H40C44.4183 48 48 44.4183 48 40V8C48 3.58172 44.4183 0 40 0Z" fill="#1F1F1C"/>
<path d="M32.0975 18.6824C32.0974 18.1748 31.9533 17.6776 31.6819 17.2486C31.4105 16.8196 31.023 16.4764 30.5643 16.2589C30.1057 16.0413 29.5948 15.9584 29.0908 16.0196C28.587 16.0809 28.1108 16.2838 27.7175 16.6049C27.3243 16.926 27.0303 17.352 26.8697 17.8336C26.709 18.3151 26.6882 18.8323 26.8097 19.3252C26.9312 19.818 27.19 20.2663 27.5561 20.6179C27.9223 20.9696 28.3806 21.2101 28.878 21.3116V22.2596C28.878 22.6865 28.7084 23.096 28.4065 23.3979C28.1047 23.6997 27.6952 23.8693 27.2682 23.8693H20.8293C20.2486 23.8682 19.6834 24.0566 19.2195 24.4059V21.3116C19.8709 21.1787 20.4498 20.8085 20.8438 20.273C21.2379 19.7375 21.4191 19.0748 21.3522 18.4133C21.2854 17.7518 20.9754 17.1386 20.4822 16.6928C19.989 16.2469 19.3478 16 18.6829 16C18.0181 16 17.3769 16.2469 16.8837 16.6928C16.3905 17.1386 16.0804 17.7518 16.0136 18.4133C15.9468 19.0748 16.1279 19.7375 16.522 20.273C16.916 20.8085 17.4949 21.1787 18.1463 21.3116V27.5002C17.4949 27.6332 16.916 28.0033 16.522 28.5389C16.1279 29.0743 15.9468 29.7371 16.0136 30.3986C16.0804 31.0601 16.3905 31.6732 16.8837 32.1191C17.3769 32.565 18.0181 32.8119 18.6829 32.8119C19.3478 32.8119 19.989 32.565 20.4822 32.1191C20.9754 31.6732 21.2854 31.0601 21.3522 30.3986C21.4191 29.7371 21.2379 29.0743 20.8438 28.5389C20.4498 28.0033 19.8709 27.6332 19.2195 27.5002V26.5522C19.2195 26.1253 19.3891 25.7159 19.691 25.414C19.9929 25.1121 20.4023 24.9425 20.8293 24.9425H27.2682C27.9798 24.9425 28.6622 24.6598 29.1653 24.1567C29.6685 23.6535 29.9512 22.9712 29.9512 22.2596V21.3116C30.5568 21.1872 31.1009 20.8577 31.4919 20.3787C31.883 19.8998 32.0968 19.3006 32.0975 18.6824ZM17.0732 18.6824C17.0732 18.364 17.1676 18.0528 17.3445 17.788C17.5213 17.5233 17.7728 17.317 18.0669 17.1952C18.361 17.0733 18.6847 17.0414 18.997 17.1036C19.3092 17.1657 19.5961 17.319 19.8212 17.5441C20.0463 17.7692 20.1996 18.0561 20.2617 18.3683C20.3238 18.6806 20.292 19.0043 20.1701 19.2984C20.0483 19.5925 19.842 19.844 19.5772 20.0208C19.3125 20.1977 19.0013 20.2921 18.6829 20.2921C18.256 20.2921 17.8465 20.1225 17.5447 19.8206C17.2428 19.5187 17.0732 19.1093 17.0732 18.6824ZM20.2927 30.1294C20.2927 30.4479 20.1983 30.7591 20.0214 31.0239C19.8445 31.2886 19.5931 31.4949 19.2989 31.6167C19.0048 31.7385 18.6811 31.7704 18.3689 31.7083C18.0566 31.6462 17.7698 31.4929 17.5447 31.2678C17.3195 31.0426 17.1662 30.7558 17.1041 30.4436C17.042 30.1313 17.0739 29.8076 17.1957 29.5135C17.3175 29.2193 17.5239 28.968 17.7886 28.791C18.0533 28.6141 18.3645 28.5197 18.6829 28.5197C19.1099 28.5197 19.5193 28.6893 19.8212 28.9912C20.1231 29.2931 20.2927 29.7026 20.2927 30.1294ZM29.4146 20.2921C29.0962 20.2921 28.785 20.1977 28.5203 20.0208C28.2556 19.844 28.0492 19.5925 27.9274 19.2984C27.8055 19.0043 27.7736 18.6806 27.8357 18.3683C27.8978 18.0561 28.0512 17.7692 28.2764 17.5441C28.5015 17.319 28.7882 17.1657 29.1005 17.1036C29.4128 17.0414 29.7364 17.0733 30.0306 17.1952C30.3247 17.317 30.5762 17.5233 30.753 17.788C30.9299 18.0528 31.0243 18.364 31.0243 18.6824C31.0243 19.1093 30.8547 19.5187 30.5528 19.8206C30.251 20.1225 29.8416 20.2921 29.4146 20.2921Z" fill="#FAFF69"/>
</g>
<defs>
<clipPath id="clip0_1_7">
<rect width="48" height="48" fill="white"/>
</clipPath>
</defs>
</svg>
