<svg width="48" height="48" viewBox="0 0 48 48" fill="none" xmlns="http://www.w3.org/2000/svg">
<rect width="48" height="48" rx="8" fill="#1F1F1C"/>
<path d="M22.9999 33.0038H17.9978C16.3403 33.0038 14.9966 31.6601 14.9966 30.0026V17.9976C14.9966 16.34 16.3403 14.9963 17.9978 14.9963H30.0028C31.6604 14.9963 33.0041 16.34 33.0041 17.9976V22.9997" stroke="#FCFF74" stroke-width="1.5" stroke-linecap="round" stroke-linejoin="round"/>
<path d="M31.5864 28.2708H33.004V26.8552" stroke="#FCFF74" stroke-width="1.5" stroke-linecap="round" stroke-linejoin="round"/>
<path d="M28.4219 31.3333H27.0073V32.7488" stroke="#FCFF74" stroke-width="1.5" stroke-linecap="round" stroke-linejoin="round"/>
<path d="M33.0038 30.8689C32.8544 31.3204 32.6028 31.7312 32.2685 32.0694C31.0183 33.3193 28.9917 33.3193 27.7416 32.0694C27.5243 31.8531 27.3397 31.6065 27.1934 31.3371" stroke="#FCFF74" stroke-width="1.5" stroke-linecap="round" stroke-linejoin="round"/>
<path d="M32.8159 28.2698C32.3333 27.3834 31.4609 26.7764 30.462 26.6321C29.463 26.4877 28.4545 26.8229 27.7407 27.5365C27.4058 27.8747 27.1532 28.2855 27.0024 28.737" stroke="#FCFF74" stroke-width="1.5" stroke-linecap="round" stroke-linejoin="round"/>
<path d="M33.0041 19.9985H14.9966" stroke="#FCFF74" stroke-width="1.5" stroke-linecap="round" stroke-linejoin="round"/>
<path d="M25.7497 23.45C25.7226 23.45 25.7007 23.4719 25.7007 23.499C25.7007 23.5261 25.7226 23.548 25.7497 23.548C25.7768 23.548 25.7987 23.5261 25.7987 23.499C25.7987 23.4719 25.7768 23.45 25.7497 23.45" stroke="#FCFF74" stroke-width="1.5" stroke-linecap="round" stroke-linejoin="round"/>
<path d="M22.2482 23.45C22.2353 23.45 22.223 23.4552 22.2139 23.4644C22.2049 23.4736 22.1999 23.4861 22.2002 23.499C22.2002 23.5189 22.2123 23.5368 22.2307 23.5444C22.2492 23.5519 22.2703 23.5475 22.2843 23.5333C22.2982 23.5191 22.3021 23.4978 22.2942 23.4795C22.2863 23.4613 22.2681 23.4496 22.2482 23.45" stroke="#FCFF74" stroke-width="1.5" stroke-linecap="round" stroke-linejoin="round"/>
<path d="M18.7468 23.45C18.7335 23.4497 18.7208 23.4549 18.7115 23.4644C18.7022 23.4738 18.6972 23.4867 18.6978 23.5C18.6978 23.5199 18.7098 23.5378 18.7283 23.5454C18.7467 23.5529 18.7679 23.5485 18.7818 23.5343C18.7958 23.5201 18.7997 23.4988 18.7918 23.4805C18.7839 23.4622 18.7657 23.4506 18.7458 23.451" stroke="#FCFF74" stroke-width="1.5" stroke-linecap="round" stroke-linejoin="round"/>
<path d="M22.2482 26.4512C22.2353 26.4512 22.223 26.4564 22.2139 26.4656C22.2049 26.4748 22.1999 26.4873 22.2002 26.5002C22.2002 26.5201 22.2123 26.5381 22.2307 26.5456C22.2492 26.5531 22.2703 26.5487 22.2843 26.5345C22.2982 26.5203 22.3021 26.499 22.2942 26.4808C22.2863 26.4625 22.2681 26.4508 22.2482 26.4512" stroke="#FCFF74" stroke-width="1.5" stroke-linecap="round" stroke-linejoin="round"/>
<path d="M18.7468 26.4512C18.7335 26.4509 18.7208 26.4561 18.7115 26.4656C18.7022 26.4751 18.6972 26.488 18.6978 26.5012C18.6978 26.5211 18.7098 26.5391 18.7283 26.5466C18.7467 26.5541 18.7679 26.5497 18.7818 26.5355C18.7958 26.5213 18.7997 26.5 18.7918 26.4817C18.7839 26.4635 18.7657 26.4518 18.7458 26.4522" stroke="#FCFF74" stroke-width="1.5" stroke-linecap="round" stroke-linejoin="round"/>
<path d="M22.2482 29.4534C22.2353 29.4534 22.223 29.4586 22.2139 29.4678C22.2049 29.477 22.1999 29.4895 22.2002 29.5024C22.2002 29.5223 22.2123 29.5403 22.2307 29.5478C22.2492 29.5553 22.2703 29.5509 22.2843 29.5367C22.2982 29.5225 22.3021 29.5012 22.2942 29.483C22.2863 29.4647 22.2681 29.453 22.2482 29.4534" stroke="#FCFF74" stroke-width="1.5" stroke-linecap="round" stroke-linejoin="round"/>
<path d="M18.7468 29.4534C18.7337 29.4531 18.7211 29.4582 18.7118 29.4674C18.7026 29.4767 18.6975 29.4893 18.6978 29.5024C18.6978 29.5223 18.7098 29.5403 18.7283 29.5478C18.7467 29.5553 18.7679 29.5509 18.7818 29.5367C18.7958 29.5225 18.7997 29.5012 18.7918 29.483C18.7839 29.4647 18.7657 29.453 18.7458 29.4534" stroke="#FCFF74" stroke-width="1.5" stroke-linecap="round" stroke-linejoin="round"/>
</svg>
