<svg width="48" height="48" viewBox="0 0 48 48" fill="none" xmlns="http://www.w3.org/2000/svg">
<rect x="0.5" y="0.5" width="47" height="47" rx="7.5" fill="#1F1F1C"/>
<rect x="0.5" y="0.5" width="47" height="47" rx="7.5" stroke="#414141"/>
<path d="M22.9996 33.0041H17.9975C16.34 33.0041 14.9962 31.6604 14.9962 30.0028V17.9978C14.9962 16.3403 16.34 14.9966 17.9975 14.9966H30.0025C31.66 14.9966 33.0037 16.3403 33.0037 17.9978V22.9999" stroke="#FCFF74" stroke-width="1.5" stroke-linecap="round" stroke-linejoin="round"/>
<path d="M31.5862 28.2711H33.0037V26.8555" stroke="#FCFF74" stroke-width="1.5" stroke-linecap="round" stroke-linejoin="round"/>
<path d="M28.4219 31.333H27.0073V32.7486" stroke="#FCFF74" stroke-width="1.5" stroke-linecap="round" stroke-linejoin="round"/>
<path d="M33.0037 30.8691C32.8544 31.3206 32.6027 31.7314 32.2684 32.0696C31.0183 33.3195 28.9917 33.3195 27.7416 32.0696C27.5243 31.8534 27.3396 31.6067 27.1933 31.3373" stroke="#FCFF74" stroke-width="1.5" stroke-linecap="round" stroke-linejoin="round"/>
<path d="M32.8157 28.2698C32.3331 27.3834 31.4607 26.7764 30.4618 26.6321C29.4629 26.4877 28.4543 26.8229 27.7406 27.5365C27.4056 27.8747 27.153 28.2855 27.0023 28.737" stroke="#FCFF74" stroke-width="1.5" stroke-linecap="round" stroke-linejoin="round"/>
<path d="M33.0037 19.9983H14.9962" stroke="#FCFF74" stroke-width="1.5" stroke-linecap="round" stroke-linejoin="round"/>
<path d="M25.7497 23.4497C25.7226 23.4497 25.7007 23.4717 25.7007 23.4987C25.7007 23.5258 25.7226 23.5478 25.7497 23.5478C25.7768 23.5478 25.7987 23.5258 25.7987 23.4987C25.7987 23.4717 25.7768 23.4497 25.7497 23.4497" stroke="#FCFF74" stroke-width="1.5" stroke-linecap="round" stroke-linejoin="round"/>
<path d="M22.2483 23.4497C22.2354 23.4497 22.223 23.4549 22.214 23.4641C22.2049 23.4734 22.2 23.4858 22.2002 23.4987C22.2003 23.5187 22.2123 23.5366 22.2307 23.5441C22.2492 23.5517 22.2703 23.5473 22.2843 23.533C22.2982 23.5188 22.3022 23.4976 22.2943 23.4793C22.2864 23.461 22.2682 23.4493 22.2483 23.4497" stroke="#FCFF74" stroke-width="1.5" stroke-linecap="round" stroke-linejoin="round"/>
<path d="M18.7468 23.4497C18.7335 23.4494 18.7208 23.4546 18.7115 23.4641C18.7022 23.4736 18.6972 23.4865 18.6978 23.4997C18.6978 23.5197 18.7098 23.5376 18.7283 23.5451C18.7467 23.5526 18.7679 23.5483 18.7818 23.534C18.7958 23.5198 18.7997 23.4986 18.7918 23.4803C18.7839 23.462 18.7657 23.4503 18.7458 23.4507" stroke="#FCFF74" stroke-width="1.5" stroke-linecap="round" stroke-linejoin="round"/>
<path d="M22.2483 26.4512C22.2354 26.4512 22.223 26.4564 22.214 26.4656C22.2049 26.4748 22.2 26.4873 22.2002 26.5002C22.2003 26.5201 22.2123 26.5381 22.2307 26.5456C22.2492 26.5531 22.2703 26.5487 22.2843 26.5345C22.2982 26.5203 22.3022 26.499 22.2943 26.4808C22.2864 26.4625 22.2682 26.4508 22.2483 26.4512" stroke="#FCFF74" stroke-width="1.5" stroke-linecap="round" stroke-linejoin="round"/>
<path d="M18.7468 26.4512C18.7335 26.4509 18.7208 26.4561 18.7115 26.4656C18.7022 26.4751 18.6972 26.488 18.6978 26.5012C18.6978 26.5211 18.7098 26.5391 18.7283 26.5466C18.7467 26.5541 18.7679 26.5497 18.7818 26.5355C18.7958 26.5213 18.7997 26.5 18.7918 26.4817C18.7839 26.4635 18.7657 26.4518 18.7458 26.4522" stroke="#FCFF74" stroke-width="1.5" stroke-linecap="round" stroke-linejoin="round"/>
<path d="M22.2483 29.4532C22.2354 29.4531 22.223 29.4583 22.214 29.4676C22.2049 29.4768 22.2 29.4893 22.2002 29.5022C22.2003 29.5221 22.2123 29.54 22.2307 29.5475C22.2492 29.5551 22.2703 29.5507 22.2843 29.5365C22.2982 29.5222 22.3022 29.501 22.2943 29.4827C22.2864 29.4644 22.2682 29.4527 22.2483 29.4532" stroke="#FCFF74" stroke-width="1.5" stroke-linecap="round" stroke-linejoin="round"/>
<path d="M18.7468 29.4532C18.7337 29.4529 18.7211 29.458 18.7118 29.4672C18.7026 29.4765 18.6975 29.4891 18.6978 29.5022C18.6978 29.5221 18.7098 29.54 18.7283 29.5475C18.7467 29.5551 18.7679 29.5507 18.7818 29.5365C18.7958 29.5222 18.7997 29.501 18.7918 29.4827C18.7839 29.4644 18.7657 29.4527 18.7458 29.4532" stroke="#FCFF74" stroke-width="1.5" stroke-linecap="round" stroke-linejoin="round"/>
</svg>
