<svg width="24" height="24" viewBox="0 0 24 24" fill="none" xmlns="http://www.w3.org/2000/svg">
<path d="M22.2628 6.62906C22.1992 6.43193 22.0786 6.25806 21.9163 6.12941C21.7539 6.00077 21.5571 5.92311 21.3506 5.90625L17.7478 5.60156L16.3416 2.32031C16.2599 2.13166 16.1248 1.97101 15.953 1.85816C15.7812 1.74531 15.5801 1.68518 15.3745 1.68518C15.169 1.68518 14.9679 1.74531 14.7961 1.85816C14.6242 1.97101 14.4892 2.13166 14.4075 2.32031L13.0013 5.60156L9.40032 5.90625C9.19472 5.92228 8.99849 5.99893 8.83645 6.1265C8.67442 6.25407 8.55386 6.42684 8.49004 6.62294C8.42621 6.81904 8.42197 7.02967 8.47787 7.22817C8.53377 7.42668 8.64729 7.60415 8.80407 7.73813L11.5313 10.0669L10.7138 13.5281C10.6669 13.7272 10.6798 13.9356 10.7509 14.1274C10.8219 14.3192 10.9479 14.4857 11.1131 14.6063C11.2801 14.7293 11.4797 14.8002 11.6868 14.8102C11.894 14.8202 12.0995 14.7689 12.2775 14.6625L15.3713 12.8212L18.4697 14.6625C18.6477 14.769 18.8532 14.8204 19.0604 14.8104C19.2676 14.8004 19.4672 14.7294 19.6341 14.6063C19.7993 14.4858 19.9253 14.3192 19.9962 14.1274C20.0671 13.9356 20.0797 13.7271 20.0325 13.5281L19.2188 10.0669L21.945 7.73906C22.1019 7.60624 22.2158 7.42988 22.2723 7.23229C22.3289 7.0347 22.3256 6.82477 22.2628 6.62906ZM18.4509 9.24469C18.3047 9.36847 18.1956 9.53039 18.1359 9.71244C18.0761 9.8945 18.068 10.0896 18.1125 10.2759L18.8991 13.6088L15.915 11.835C15.7518 11.7375 15.5652 11.686 15.375 11.686C15.1849 11.686 14.9982 11.7375 14.835 11.835L11.8519 13.6088L12.6375 10.275C12.6826 10.0887 12.675 9.89356 12.6154 9.7114C12.5557 9.52924 12.4465 9.3673 12.3 9.24375L9.68532 7.01156L13.14 6.71906C13.33 6.7034 13.5121 6.63632 13.6669 6.525C13.8216 6.41368 13.9432 6.26233 14.0184 6.08719L15.375 2.92219L16.7325 6.08719C16.8076 6.26226 16.929 6.41358 17.0836 6.5249C17.2382 6.63622 17.4202 6.70334 17.61 6.71906L21.0656 7.01156L18.4509 9.24469ZM7.89751 11.6475L2.64751 16.8975C2.54088 16.9969 2.39984 17.051 2.25411 17.0484C2.10839 17.0458 1.96935 16.9868 1.86629 16.8837C1.76323 16.7807 1.7042 16.6416 1.70163 16.4959C1.69905 16.3502 1.75315 16.2091 1.85251 16.1025L7.10251 10.8525C7.20914 10.7531 7.35017 10.699 7.4959 10.7016C7.64162 10.7042 7.78066 10.7632 7.88372 10.8663C7.98678 10.9693 8.04582 11.1084 8.04839 11.2541C8.05096 11.3998 7.99687 11.5409 7.89751 11.6475ZM9.39751 16.1025C9.50284 16.208 9.56201 16.3509 9.56201 16.5C9.56201 16.6491 9.50284 16.792 9.39751 16.8975L4.14751 22.1475C4.04088 22.2469 3.89984 22.301 3.75412 22.2984C3.60839 22.2958 3.46935 22.2368 3.36629 22.1337C3.26323 22.0307 3.2042 21.8916 3.20163 21.7459C3.19905 21.6002 3.25315 21.4591 3.35251 21.3525L8.60251 16.1025C8.70798 15.9972 8.85094 15.938 9.00001 15.938C9.14907 15.938 9.29204 15.9972 9.39751 16.1025ZM16.1475 16.1025C16.2528 16.208 16.312 16.3509 16.312 16.5C16.312 16.6491 16.2528 16.792 16.1475 16.8975L10.8975 22.1475C10.7909 22.2469 10.6498 22.301 10.5041 22.2984C10.3584 22.2958 10.2194 22.2368 10.1163 22.1337C10.0132 22.0307 9.9542 21.8916 9.95163 21.7459C9.94905 21.6002 10.0031 21.4591 10.1025 21.3525L15.3525 16.1025C15.4047 16.0502 15.4668 16.0087 15.5351 15.9804C15.6034 15.9521 15.6766 15.9375 15.7505 15.9375C15.8244 15.9375 15.8976 15.9521 15.9659 15.9804C16.0342 16.0087 16.0962 16.0502 16.1484 16.1025H16.1475Z" fill="#FAFF69"/>
</svg>
