<svg width="24" height="24" viewBox="0 0 24 24" fill="none" xmlns="http://www.w3.org/2000/svg">
<path d="M20.8125 6.00004C20.8124 5.4679 20.6613 4.9467 20.3768 4.49699C20.0923 4.04729 19.6861 3.68751 19.2053 3.45947C18.7245 3.23142 18.1889 3.14445 17.6606 3.20866C17.1324 3.27288 16.6332 3.48564 16.221 3.82224C15.8088 4.15884 15.5006 4.60546 15.3322 5.11023C15.1637 5.615 15.1419 6.15721 15.2693 6.67388C15.3967 7.19055 15.668 7.66048 16.0518 8.02909C16.4356 8.3977 16.9161 8.64986 17.4375 8.75629V9.75004C17.4375 10.1976 17.2597 10.6268 16.9432 10.9433C16.6268 11.2597 16.1976 11.4375 15.75 11.4375H9.00001C8.39127 11.4363 7.79876 11.6338 7.31251 12V8.75629C7.9954 8.61689 8.60222 8.22889 9.0153 7.66752C9.42839 7.10614 9.61832 6.41138 9.54826 5.71793C9.47821 5.02448 9.15317 4.38174 8.63615 3.91432C8.11914 3.44691 7.44699 3.18811 6.75001 3.18811C6.05303 3.18811 5.38087 3.44691 4.86386 3.91432C4.34684 4.38174 4.0218 5.02448 3.95175 5.71793C3.8817 6.41138 4.07162 7.10614 4.48471 7.66752C4.89779 8.22889 5.50461 8.61689 6.18751 8.75629V15.2438C5.50461 15.3832 4.89779 15.7712 4.48471 16.3326C4.07162 16.8939 3.8817 17.5887 3.95175 18.2821C4.0218 18.9756 4.34684 19.6183 4.86386 20.0858C5.38087 20.5532 6.05303 20.812 6.75001 20.812C7.44699 20.812 8.11914 20.5532 8.63615 20.0858C9.15317 19.6183 9.47821 18.9756 9.54826 18.2821C9.61832 17.5887 9.42839 16.8939 9.0153 16.3326C8.60222 15.7712 7.9954 15.3832 7.31251 15.2438V14.25C7.31251 13.8025 7.4903 13.3733 7.80676 13.0568C8.12323 12.7403 8.55245 12.5625 9.00001 12.5625H15.75C16.4959 12.5625 17.2113 12.2662 17.7387 11.7388C18.2662 11.2113 18.5625 10.496 18.5625 9.75004V8.75629C19.1974 8.6258 19.7678 8.2804 20.1777 7.77831C20.5876 7.27623 20.8118 6.64817 20.8125 6.00004ZM5.06251 6.00004C5.06251 5.66628 5.16148 5.34002 5.3469 5.06251C5.53233 4.78501 5.79588 4.56871 6.10423 4.44099C6.41258 4.31327 6.75188 4.27985 7.07922 4.34496C7.40656 4.41008 7.70725 4.57079 7.94325 4.8068C8.17925 5.0428 8.33997 5.34348 8.40508 5.67082C8.47019 5.99817 8.43678 6.33747 8.30905 6.64582C8.18133 6.95417 7.96504 7.21772 7.68753 7.40314C7.41002 7.58857 7.08376 7.68754 6.75001 7.68754C6.30245 7.68754 5.87323 7.50975 5.55676 7.19328C5.2403 6.87681 5.06251 6.44759 5.06251 6.00004ZM8.43751 18C8.43751 18.3338 8.33854 18.6601 8.15311 18.9376C7.96769 19.2151 7.70413 19.4314 7.39578 19.5591C7.08743 19.6868 6.74813 19.7202 6.42079 19.6551C6.09345 19.59 5.79276 19.4293 5.55676 19.1933C5.32076 18.9573 5.16004 18.6566 5.09493 18.3293C5.02982 18.0019 5.06324 17.6626 5.19096 17.3543C5.31868 17.0459 5.53497 16.7824 5.81248 16.5969C6.08999 16.4115 6.41625 16.3125 6.75001 16.3125C7.19756 16.3125 7.62678 16.4903 7.94325 16.8068C8.25972 17.1233 8.43751 17.5525 8.43751 18ZM18 7.68754C17.6662 7.68754 17.34 7.58857 17.0625 7.40314C16.785 7.21772 16.5687 6.95417 16.441 6.64582C16.3132 6.33747 16.2798 5.99817 16.3449 5.67082C16.41 5.34348 16.5708 5.0428 16.8068 4.8068C17.0428 4.57079 17.3434 4.41008 17.6708 4.34496C17.9981 4.27985 18.3374 4.31327 18.6458 4.44099C18.9541 4.56871 19.2177 4.78501 19.4031 5.06251C19.5885 5.34002 19.6875 5.66628 19.6875 6.00004C19.6875 6.44759 19.5097 6.87681 19.1932 7.19328C18.8768 7.50975 18.4476 7.68754 18 7.68754Z" fill="#7E7E7E"/>
</svg>
